<?xml version="1.0" encoding="UTF-8"?>
<svg version="1.1" viewBox="0 0 1800 1800" width="1280" height="1280" xmlns="http://www.w3.org/2000/svg">
<path transform="translate(791,577)" d="m0 0h183l254 1 11 4 9 7 7 9 5 12 1 8v431l-2 15-6 12-7 8-8 5-16 5h-154l-1 22-6 62-3 17h338l1 2-1 42-1 1-341 1-3 26-5 70-3 33-1 44 1 28-3 5v30l2 20 2 19 1 46 1 22v71l-1 5 6 25 10 32v3h-92l-5-10-7-19-2-7-11 1-8 1h-28l-16-4-9-8-4-4 2 15v26l-2 7-2 2-52 1-37-1-3-3-1-5v-16l6-24v-9l-1-2-14-4-12-7-7-8-3-7v-25l-1-21v-69l3-30-1-10-1-35-2-18-1-22-8-5 2-11 6-37 5-29 8-36 9-48-4 1h-360l-1-1v-43l1-1 305-1-21-10-12-5-15-7-28-7-13-8-23-11-6-4-2-5-15-4-17-4-5-5-6-26-13-60-10-45-10-42v-5l1-1h12l12 1v-334l4-12 8-11 9-6 9-4 4-1z" fill="#5E6C8F"/>
<path transform="translate(926,591)" d="m0 0h286l13 1 9 3 7 6 4 8 2 8v54l-2 1-275 1-1 13h201l75 1 1 1v371l-5 10-9 7-5 2-12 1h-143l4-18 2-13 1-14 6-21 5-27 3-9 3-18v-13l-3-16-10-22-7-8-17-12-16-13-9-11-10-11-9-11-14-15-9-11-7-8-6-1-7-1-5-1-8 1-5-2-1 2h-2v-3l-4-1-1-7h-2l2-8-1-2h2l-1-4-5 8-5 5-3 1-5-7-5-5-1-2-3-1-4-4h-4l-1 6-2 3-2 10-1 4-5 4-4 4-4 3-5 2-8 2-4 2v3l6 4 2 2 9 2 8 1 8-1v-2l7-2 10-7h2l1-3 8-4 5 2 1 5-1 2h2l2 4 1 8 2 4-1 5-4 8-4 7h-2l-2 5-1 2h-2l-1 4-2 1-1 3-2 1-1 3h-2l-1 4h-2l-2 4-3 5-5 5-5 6-15 7h-5l2-10 1-2-1-6h-2l-5-13v-3h-2l-4-16-1-9-2-1-2 10-4 10-6 3-20 6-12 5-12 8-10 9-6 7-3 7-5-5-13-14-5-6 1-4 7-7 9-11 10-11 9-11 11-12 9-12-1-5-3-4-6 1-13 14-9 11-9 10-7 8-12 14-11 13-1 7 7 9 12 14 11 13 4 4-1 6-9 27-4 17-5 23-6 22-2 10v17l-1 8 5 4 5 5-3 3v6l-2 5-2 2-1 7-2 6h-1v-7l2-8-8 1h-27l-2-2-10-48-11-51-4-10-4-2-82-10-53-6-6-2-1-3v-238l1-20h274l-1-2v-9l2-6 1-11 6-10 7-7 14-8 13-3h14l23 1h18l3 2 5 14 1 1v5h-2v5l5 5 4 3-1 2h6l1 3h7 3l3-1-3-3h-9l-9-4-2-5h3v4l6 1 9 1 2-2 4 4v2l3 1 1-8v-8l1-1-2-7v-4h2l-3-10-7-8-8-11-6-7v-2l-4-2-15-8-3-2z" fill="#FDFDFD"/>
<path transform="translate(914,775)" d="m0 0 5 3v2l4 1 3 5 8 8 4-2 6-9 3-3v7l-3 8h2l2 7 3 1v3h2l1-3 6 2 9-1 5 2h9l5 5 13 14 7 8 10 11 9 11 10 11 9 11 13 10 18 13 7 8 10 22 3 16v13l-3 18-4 13-5 27-5 17-2 21-3 16-2 6-2 11h-2l1 4 152 1v1h-154v7l-1 1-2 13h-2v6l-1 6-1 14-1 3-1 12 1 8h-2l1 4-4 26-2 3v7l-1 4-2 16-1 11-1 2-1 12v18l-2 6-2 13-12 38-4 2-3-2-2-9v-4h-2l-4-23-3-11-4-20-3-19-1 3 4 33 7 31 4 14 2 10 2 7 3 18 2 16 5 19v5l-1-2h-2l-4-13-1-1 2 16 4 11 1 14 1 9-5-3 3 13v5h2v5l2 1-1 2-8 1-2 6-2 1-6-2-5 3-7 1-15-5-10-4-1 1v2l-6-1-28-9-15-3-17-1h-11l-12-3-8-1-5 1-6-3v-2l-22-3-9-2-5 2-12-3-3-2v-2l-4-1-4-2v-2l2-1h6v2l5-2 3-5 2-3-1-7-4-2 1-5 2-7-1-3-4-3 1-5v-8l-1-2 1-9 3-6 3-1 3-15 4-5v-9l-3-14-4-2-2-4-3-1-4 5-5 2-3 3-4-1-2-5v-10l3-20 6-19 5-19 2-12-1-4h-4l-2-4-10-1-2 2 1 3-5 6-5 1 2 4 2 2-3 4-2 6-4 10-5 17-1 5h-2v5l-1 2-1 4-4-2v-15l1-9 1-7 2-13 1-10h2l1-6h2l-1-3 9 1v2h2v-4l-4-1-1-1h-6l-4-1-6 1 2-9-2-1 2-6h2l-1-6 2-2h13l8 2 2 9 1 3 4 1 1 2 20 6h6v2h7l17 4 21 1h61l10 2 19 1h28l6-2h8l5-6 4-9h2l3-10 10-23 12-36 12-41 4-5-1-5-15-2-33-6-14-1-13-3h-15l-1 2h-2l-1 10v47l-2 5h-2l-1 6-8 5-27 8-31 7-30 6h-14l18 2 6 3-2 5-10 2-14 2-17 1-8 1-17 1-10 2-16-1-13-1-2-1v2l-6-1-12-4-3-4v-3h2l-2-5v-3l-3-1v-2l-6 1-1 2h-6l-1 3h-5l-2-3h2l-1-7-5-3-1-2-13-3-3 2-11-2-32-6-6-5-5-8-5-12-4-7 2-2h15l31 5h12l2-5 2-2 1-7v-19-1-15l1-4h-2l-2-13-2-21-2-22 2-17 1-7 2-9 3-1 2 2 13 62 7 33 1 1h35v6l1-4 3-3 1-10 2-4-3-2v-2l-4-2-2-2 1-8v-17l5-22 6-22 5-24 6-20 6-17-4-2-8-10-13-15-10-13 1-7 12-14 9-10 7-8 24-28 10-11 6-1 4 5 1 5-7 9-9 10-9 11-9 10-9 11-13 14 1 4 11 12 9 11 6-10 11-11 15-10 15-6 22-7 4-10 3-10 3 1 2 14 2 9v2h2l5 14v2h2l2 7-2 7v2h-2v2l9-3 12-6 7-9h2l2-5 3-4h2l1-4h2l1-4h2l1-4h2l1-4h2l2-5 1-2h2l1-4 5-8 2-4-1-7h-1l-1-10-1-3h-2v-7l-5-1-6 2-1 3-1-1-3 3-11 8h-6v2l-5 2h-8l-5-2-7-1-6-5-3-2 1-4 6-3 9-2 8-5 2-3h2l1-3h2l1-6 1-8 1-3h2l1-6z" fill="#2A2E38"/>
<path transform="translate(791,577)" d="m0 0h183l254 1 11 4 9 7 7 9 5 12 1 8v431l-2 15-6 12-7 8-8 5-13 4h-155l-2-3 1-2h2l1-9 5-1h138l12-1 8-4 5-4 5-10v-371l-75-1-201-1v-13l1-1 277-1-1-54-4-13-4-5-6-4-7-2-13-1h-286l4 3 11 6 5 5 7 8 7 10 7 8 2 6v4h-2l3 12h-2l1 10-2 7-1-2h-2v-2l-5-2-4 1-6-1-6-2v-4h-3l3 5 10 3h7l4 4-4 2h-3l-7-1-2-2-5-1v-2l-6-4-3-5 1-4h2l-4-13-3-7-2-1h-26l-15-1h-14l-15 4-12 7-7 7-5 9-1 11-2 6v11h-274v258l1 3 31 4 93 11 16 2 5 3 4 10-1 3-3 2-1 11-2 11-1 12 2 19 2 21 1 13h2l-1 19h2l-1 9v12l-2 7-4 6-12 1-31-5h-16l3 7 9 18 5 6 7 2 33 6 5 1 5-2 11 3 1 3 4 1 2 4v5 2h5l3-3 4 1 1-3 6-1 1 3 2 1 2 4v4h-2l3 6 18 6v-2h9l6 1 18 1 8-2 19-1 8-1 15-1 14-2 10-2 1-4-5-2-18-2-3-2h17l39-8 25-6 24-7 7-4 2-6h2l1-5v-47l2-10h2l1-3h15l13 3 20 2 32 6 10 1 2 6-4 5-13 44-12 35-10 23-3 8h-2l-1 5-5 8-3 3h-8l-6 2h-28l-19-1-10-2h-68l-14-1-12-3-12-2-1-1h-7l-12-4-7-3-1-2-3-1-2-3-1-9-8-1h-13v3l-1 4-2 2v7l-1 4-4 3h-11l-2-5-6-2-10-5-14-5-10-5h-312l1-2 305-1-21-10-12-5-15-7-28-7-13-8-23-11-6-4-2-5-15-4-17-4-5-5-6-26-13-60-10-45-10-42v-5l1-1h12l12 1v-334l4-12 8-11 9-6 9-4 4-1z" fill="#08080A"/>
<path transform="translate(415,501)" d="m0 0h950l27 1 1 28 1 113 1 230 2 218-1 1-16 1h-26l-2-2-1-94-1-131-2-318-13-1h-883l2 388v157l-14 1h-29l-1-1-1-79-2-417v-94z" fill="#cd5ff8"/>
<path transform="translate(971,687)" d="m0 0h274l1 1v371l-5 10-9 7-5 2-12 1h-143l4-18 2-13 1-14 6-21 5-27 3-9 3-18v-13l-3-16-10-22-7-8-17-12-16-13-9-11-10-11-9-11-14-15-9-11-7-8-6-1-7-1-5-1h-6l-3-3-3-8v-29l1-11 5-5 9-8 8-7 4-9 2-9-2-3 1-3 2 2-1-9-3-5-2-1h-10l-1-4z" fill="#FDFDFD"/>
<path transform="translate(409,1196)" d="m0 0h310l15 7 13 5 12 6 2 5 11-1 3-2 2 2 7-1 2 1h5l3 2 4 2-2 3h-2v-2h-8v2h-2l-1 6h-2v10l-2 13-1 7-1 9v15l2 1 3-10h2l1-10 6-18 3-5 2-6 1-4-3-6 7-2 4-6-2-1 3-3 10 1 2 5 4-1 2 7-5 22-8 26-3 22v9l2 4h5l2-4 4-1 5-5 4 4v2l5 1 3 15v9l-4 5-3 15-4 2-3 8v6l1 2v8l-1 5 4 3 1 5-3 6 1 5 4 4-1 6-3 3-3 5h-4v-2l-8 1v2l5 2 3 1v2l5 2 12 2 5-2 7 2 20 3 3 3 5 2 7-1 1 6-5 2-3-1h-4l-1-1h-10l-7 2-6-1v-2h-2l-1 3-4 4v12l6 30 3 18v17l4 23 5 20 2 10 7 36v7h2l1 10 2 7 2 12 1 3 1 18 2 4 1 10v26l-2 7-2 2-52 1-37-1-3-3-1-5v-16l6-24v-9l-1-2-14-4-12-7-7-8-3-7v-25l-1-21v-69l3-30-1-10-1-35-2-18-1-22-8-5 2-11 6-37 5-29 8-36 9-48-4 1h-360l-1-1v-37z" fill="#4B5879"/>
<path transform="translate(518,945)" d="m0 0h12l26 3 1-3 1 3 31 4 93 11 16 2 5 3 4 10-1 3-3 2-1 11-2 11-1 12 2 19 2 21 1 13h2l-1 19h2l-1 9v12l-2 7-4 6-12 1-31-5h-16l3 7 9 18 5 6 7 2 33 6 5 1 5-2 11 3 1 3 4 1 2 4v5 2h5l3-3 4 1 1-3 6-1 1 3 2 1 2 4v4h-2l3 6 18 6v-2h9l6 1 18 1 8-2 19-1 8-1 15-1 14-2 10-2 1-4-5-2-18-2-3-2h17l39-8 25-6 24-7 7-4 2-6h2l1-5v-47l2-10h2l1-3h15l13 3 20 2 32 6 10 1 2 6-4 5-13 44-12 35-10 23-3 8h-2l-1 5-5 8-3 3h-8l-6 2h-28l-19-1-10-2h-68l-14-1-12-3-12-2-1-1h-7l-12-4-7-3-1-2-3-1-2-3-1-9-8-1h-13v3l-1 4-2 2v7l-1 4-4 3h-11l-2-5-6-2-10-5-14-5-10-5h-312l1-2 305-1-21-10-12-5-15-7-28-7-13-8-23-11-6-4-2-5-15-4-17-4-5-5-6-26-13-60-10-45-10-42v-5z" fill="#58586A"/>
<path transform="translate(926,591)" d="m0 0h286l13 1 9 3 7 6 4 8 2 8v54l-2 1-275 1-1 13h201v1l-199 1-2 5v3h10l4 4 2 3 1 11-3-3 2 6-4 13-4 6-10 9-8 7h-2l-1 13v29l3 10 2 1-2 1-5-2-1 2h-2v-3l-4-1-1-7h-2l2-8-1-2h2l-1-4-5 8-5 5-3 1-5-7-5-5-1-2-3-1-4-4h-4l-1 6-2 3-2 10-1 4-5 4-4 4-4 3-5 2-8 2-4 2v3l6 4 2 2 9 2 8 1 8-1v-2l7-2 10-7h2l1-3 8-4 5 2 1 5-1 2h2l2 4 1 8 2 4-1 5-4 8-4 7h-2l-2 5-1 2h-2l-1 4-2 1-1 3-2 1-1 3h-2l-1 4h-2l-2 4-3 5-5 5-5 6-15 7h-5l2-10 1-2-1-6h-2l-5-13v-3h-2l-4-16-1-9v-3l2 2 3 17 4 8h1l1-10-6-17-4-12-2-1-1-9-9-6-3-3 1-2 3 2-5-12-1-7h2v-3h-6l2-3-5-1-4-2-5-10-3-7-4-8 1-7-3-6-1-4-2-6 1-4-1-31-9 7-3 5v8l-4-5-1-5 5-5 6-4 6-5 2-7 1-9v-10l1-11 6-10 7-7 14-8 13-3h14l23 1h18l3 2 5 14 1 1v5h-2v5l5 5 4 3-1 2h6l1 3h7 3l3-1-3-3h-9l-9-4-2-5h3v4l6 1 9 1 2-2 4 4v2l3 1 1-8v-8l1-1-2-7v-4h2l-3-10-7-8-8-11-6-7v-2l-4-2-15-8-3-2z" fill="#AA7878"/>
<path transform="translate(780,1195)" d="m0 0h13l8 2 2 9 1 3 4 1 1 2 20 6h6v2h7l17 4 21 1h61l10 2 45 2 2 28 2 14 2 7 2 1 1-6 3 4 5 22v2h2l5 18 2 10 2 7 3 18 2 16 5 19v5l-1-2h-2l-4-13-1-1 2 16 4 11 1 14 1 9-5-3 3 13v5h2v5l2 1-1 2-8 1-2 6-2 1-6-2-5 3-7 1-15-5-10-4-1 1v2l-6-1-28-9-15-3-17-1h-11l-12-3-8-1-5 1-6-3v-2l-22-3-9-2-5 2-12-3-3-2v-2l-4-1-4-2v-2l2-1h6v2l5-2 3-5 2-3-1-7-4-2 1-5 2-7-1-3-4-3 1-5v-8l-1-2 1-9 3-6 3-1 3-15 4-5v-9l-3-14-4-2-2-4-3-1-4 5-5 2-3 3-4-1-2-5v-10l3-20 6-19 5-19 2-12-1-4h-4l-2-4-10-1-2 2 1 3-5 6-5 1 2 4 2 2-3 4-2 6-4 10-5 17-1 5h-2v5l-1 2-1 4-4-2v-15l1-9 1-7 2-13 1-10h2l1-6h2l-1-3 9 1v2h2v-4l-4-1-1-1h-6l-4-1-6 1 2-9-2-1 2-6h2l-1-6z" fill="#191C24"/>
<path transform="translate(973,1078)" d="m0 0h15l13 3 20 2 32 6 10 1 2 6-4 5-13 44-12 35-10 23-3 8h-2l-1 5-5 8-3 3h-8l-6 2h-28l-19-1-10-2h-68l-14-1-12-3-12-2-1-1h-7l-12-4-7-3-1-2-3-1-2-3-1-9-8-1h-13v3l-1 4-2 2v7l-1 4-4 3h-11l-2-5-6-2-10-5-14-5-10-5h-312l1-2 305-1-21-10-12-5-15-7-28-7-13-8-8-4-2-5-5-2-14-7 1-2 6 1 16 6 10 4 9 4 3 1-6-9-3-9-2-13 3-3 7-1 6 9 6 14 7 9 7 2 33 6 5 1 5-2 11 3 1 3 4 1 2 4v5 2h5l3-3 4 1 1-3 6-1 1 3 2 1 2 4v4h-2l3 6 18 6v-2h9l6 1 18 1 8-2 19-1 8-1 15-1 14-2 10-2 1-4-5-2-18-2-3-2h17l39-8 25-6 24-7 7-4 2-6h2l1-5v-47l2-10h2z" fill="#6D4849"/>
<path transform="translate(926,591)" d="m0 0h286l13 1 9 3 7 6 4 8 2 8v54l-2 1h-274v-7l1-10-3-15-4-10-8-8-8-12-4-4v-2l-4-2-15-8-3-2z" fill="#FDFDFD"/>
<path transform="translate(689,591)" d="m0 0h184l-1 2-13 5-10 6-13 13-2 4v15l-2 23-2 12-2 1h-225l-47-1v-54l3-10 4-6 7-6 9-3z" fill="#FEFEFE"/>
<path transform="translate(705,980)" d="m0 0 3 2 13 62 7 33 1 1h35v6l-3 10h-30l3 12 5 27 1 3v-3l2-8 6-1 4 5 3 6v2h2l3 6v2h-4l2 3-4 1-1 4-1 1 13 2 3-9h2v-2l5 1-1-5-10-19-3-4-1-5 5 2 9 13 3 4 6 12v6h-4l-4 3-1 4 6 1 12 3h7l9 1 1-18-7-31h2l3-10 5-15 3-6h2l2-8 1-5 5-5h4l1 2v6l-1 2-2 20-2 9-1 1v10l3 7 4 5v6l1 1 2-9 7-31 4-17 3-7 2-3h2l2-5 1-2h3l1 2 1 16 3 8 1 10 2 6 2 2 1 6 4-1 3-7 4-19 1-16 1-3 4 1v-2l-4-1v-3l5-3 4 1 4 7 2 9 2 5 3 14 4 9 4 4 6 3 4 6 5 6 6 14 2-9 1-13 4-9 1-7h2l3 5 3 2 3 9 3 6v2l4 2 2 4-3 7 2 8 4-1 4 2-3 9-10 5-24 7-31 7-30 6h-14l18 2 6 3-2 5-10 2-14 2-17 1-8 1-17 1-10 2-16-1-13-1-2-1v2l-6-1-12-4-3-4v-3h2l-2-5v-3l-3-1v-2l-6 1-1 2h-6l-1 3h-5l-2-3h2l-1-7-5-3-1-2-13-3-3 2-11-2-32-6-6-5-5-8-5-12-4-7 2-2h15l31 5h12l2-5 2-2 1-7v-19-1-15l1-4h-2l-2-13-2-21-2-22 2-17 1-7 2-9z" fill="#191C24"/>
<path transform="translate(821,806)" d="m0 0 5 1 4 6-1 5-12 14-39 45-4 4 1 4 11 12 9 11 6-10 11-11 15-10 15-6 22-7 3-7h1l1 9-2 11-3 17-5 10 1 8v12l2 9 4 12 3 2-1 7-1 3-3-1-3-12-4-9v-4l-3 3-1 3-7 1-2-2-4 1 3 2-6 11-2 5-4 4-3 10 1 1h6v-9l3-1 3 5v5l-3 5v7l-5 12-2 6-5 13-4 8-3-3-1-6 5-5 1-7 1-3h3l-1-9 3 1 2-4-3 1 1-5h3l-2-5-6-1v2h-3l1 6 3-1-2 5-2 2-6-1 1 3 3 2-1 4 2 4-4 9-2 3h-2l-1 8 4 2 1 9-2 10-4 17-4 14-3 17-3 11v8 3l4 11 5 21-1 18-1 1-16-1-18-5 1-5 4-3 3 1v-6l-8-15-4-5-6-9-3-1 3 7 6 10 6 12-1 4-5-2v2l-2 2-1 5-2 2-13-1-1-2 2-1 1-5h3l-2-2 3-1 2 1-3-5v-3h-2l-6-11-5-1h-2l-1 8 1 2-2 4-3-11-6-32v-2h30l1-4 2-3 1-7 3-3 1-10 2-4-3-2v-2l-4-2-2-2 1-8v-17l5-22 6-22 5-24 6-20 6-17-4-2-8-10-13-15-10-13 1-7 12-14 9-10 7-8 24-28 10-11z" fill="#3D434F"/>
<path transform="translate(409,1196)" d="m0 0h310l15 7 13 5 12 6 2 5 4 2 5 5 4 1-1 9-1 2-5 1h-360v-37z" fill="#010101"/>
<path transform="translate(1060,1195)" d="m0 0h336l1 2-1 42h-342l1-17 3-20z" fill="#010202"/>
<path transform="translate(750,1404)" d="m0 0 14 3 3 2 10 3 9 2 1 1v5l5 2h12l4 2v2h6l3 6 1 4 5 4 1 5 10 3 3 2v8h-2l-1 3-2 3 4 1 2 1-2 6-5 1v4l4 1v2h-5v4h2l1 4-3 3-3 5-8 1-3-1-2 4 7-2v2l6 1 9-3 3 5-4 5h-13l-11 1-3-1-2 4-2 3 14-1 8-2 4 1 3 3-2 7-5 4-7 3-2 3-5 2-18 2-3 1v4l25-3 5 1v4h5l1 5h-2v2l-9 3 1 5 6-1v2l-3 2h-6l-3 9-1 5v3l-10 8-3 2-1 4 8-1-1 6-3 2-3 9-4 9h3l-2 4v1l7-1v-8l2-3 5-1v2l3 1-2 7-5 3-26 9-4 2 12 1 7 6v6l-2 3v5l7 3 3 3h-10l-1 2-1-2-14-4-12-7-7-8-3-7v-25l-1-21v-69l3-30-1-10-1-35-2-18z" fill="#5E6C8F"/>
<path transform="translate(664,965)" d="m0 0h9v2l7 1 12-2h9l5 8 1 7-4 2-1 11-2 11-1 12 2 19 2 21 1 13h2l-1 19h2l-1 9v12l-2 7-4 6-12 1-31-5h-21l-5 2-1 2 2 12 4 10 5 8-1 2-6-4-9-3-7-3-19-7-4 1 5 2 14 7 2 5-19-9-3-3-1-4-3-2v-2l-4-1-5-3 1-4 1-2 7-3 1-9 7-8 5-1 5-5 9-6 3-3h2l1-9v-5l6-1 1-5 3-2-9-2v-2l-3-1-5-7-1-12 2-3 3-1 3-5 6-3 3-3v-8l1-3h2l-1-13 1-8-1-4 3-6 3-4 5-3h3v-2l3-1 2-4 7-3z" fill="#4D4D5C"/>
<path transform="translate(805,1215)" d="m0 0 11 1 2 5 4-1 2 7-5 22-8 26-3 22v9l2 4h5l2-4 4-1 5-5 4 4v2l5 1 3 15v9l-4 5-3 15-4 2-3 8v6l1 2v8l-1 5 4 3 1 5-3 6 1 5 4 4-1 6-3 3-3 5h-4v-2l-8 1v2l5 2 3 1v2l5 2 12 2 5-2 7 2 20 3 3 3 5 2 7-1-1 4-5 1-4-1v-2h-7l-3 1-13-2-6-1-6 1-1 3h-4v-2l-6 1-3-2v-2l-3-1-4-5-3-5-11-4-5 1h-7l-4-2-2-4-13-3-12-5-15-4-4-3 2-11 6-37 5-29 8-36 9-48-4 1h-360v-1l364-1 2-11-6-1-5-6v-1l9-1 3-2 2 2 7-1 2 1h5l3 2 4 2-2 3h-2v-2h-8v2h-2l-1 6h-2v10l-2 13-1 7-1 9v15l2 1 3-10h2l1-10 6-18 3-5 2-6 1-4-3-6 7-2 4-6-2-1z" fill="#3D434F"/>
<path transform="translate(1030,1510)" d="m0 0h1l-1 9-6 10v3l3-5 2 2-1 16-1 8v11l1 5v49l1 12-7 2-5 5-4 5 4-2 7-5h2v-2l3 1 1 5v9l-1 3-1 1 4 3-1 5-5 5-4 2-15 3-13 4-1 1-10 1-2 1 11-1 19-5 8-2 10-3 1 2-1 11 4 9 2 5 1 10-2 12-8 1-48 1-3 2-7-1-5-11-6-16-2-7-4-2-1-4-5-2 2-5-5-3h-3v-2l-8-1-13-4-5-3-11-6-14-9-1-2 4 1 8 4 17 9 26 9 6 2 3-1-2-3-16-5v-2l-5-1-21-11-1-3 5-1 5 2 3 1v2h15l3 1 4-1-13-8-2-1v-2l-14 5v-3l4-4v-4l2-1-1-3h6l7-5 3-5 11-7 11-5 23-6 2-2-10 2-4-1 16-8 11-8 8-10 8-17 3-7h-6l-2-5 2-3h2l2-4 9-8 5-5z" fill="#4C5879"/>
<path transform="translate(873,631)" d="m0 0h14l23 1h18l3 2 5 14 1 1v5h-2v5l5 5 4 3-1 2h6l1 3h7 3l3-1-3-3h-9l-9-4-2-5h3v4l6 1 9 1 2-2 4 4v2l3 1 1-8v-8l1-1-2-7v-4h2l1-2 3 15-1 10-1 7-1 1-1 13h201v1l-199 1-2 5v3h10l2 1v2l-6 2-6 8-1 7-1 4-3 6v2l4 2-3 6-7 4-4 8-2 15-3 1-1-5v-10l-4-1-2-7-1-6 1-4-4-2-1 4h-2l-1 4-2 2-5-1-5-2v-7l2-6-2-1-2 4-9 11-5 3h-3l1-3 6-4h2l2-5 4-6v-2l-4-1-3 2h-3l-1 1-13 2-2-1v-2l-4-1-3-1-2 4-2 2 1 4 4 2 3 4-5-2-7-5-4-5v-3h-2l1-8-2-1h-8l1 8-7 13-7 11-3 7-2-3 3-6v-2l-4 2-5-1 1-2 10-4 6-9 1-3-5 5-5 1-2-8h-2l-1-5-6-2v-5l5 1 4 5 2-5-5-2-10-5h-2v-2l-9 7-3 5v8l-4-5-1-5 5-5 6-4 6-5 2-7 1-9v-10l1-11 6-10 7-7 14-8z" fill="#6D4849"/>
<path transform="translate(705,980)" d="m0 0 3 2 13 62 7 33 1 1h35v6l-3 10h-30l3 12 5 27 1 3v-3l2-8 6-1 4 5 3 6v2h2l3 6v2h-4l2 3-4 1-1 4-1 1 13 2 3-9h2v-2l5 1-1-5-10-19-3-4-1-5 5 2 9 13 3 4 6 12v6h-4l-4 3-1 4 6 1 12 3h7l28 6 30 6 1 2h-4l18 2 6 3-2 5-10 2-14 2-17 1-8 1-17 1-10 2-16-1-13-1-2-1v2l-6-1-12-4-3-4v-3h2l-2-5v-3l-3-1v-2l-6 1-1 2h-6l-1 3h-5l-2-3h2l-1-7-5-3-1-2-13-3-3 2-11-2-32-6-6-5-5-8-5-12-4-7 2-2h15l31 5h12l2-5 2-2 1-7v-19-1-15l1-4h-2l-2-13-2-21-2-22 2-17 1-7 2-9z" fill="#2A2E39"/>
<path transform="translate(427,502)" d="m0 0h965v247l-1 12h-1l-3-24v-12l-1-2v-33l-1-30v-82l-1-27-1-30-3-9-3-2-148-1h-790l-12-2v-3l-7 1-5 5-5 3v-10z" fill="#050A48"/>
<path transform="translate(973,1078)" d="m0 0h15l13 3 24 4 10 2 5 4v7l-3 12-3 5-6 16-2 12-3 8-1 8-2 6-1 6h-2l-2 5-4 4h-2v-10l-3-1-3-4 1-5 2-2 1-15v-4l-5 2-8 7-2 3h-2l-2 6-1 2-9 2-9 3-2 1-2-1v9l-2 9-3 5-6 4-9 3-6 3-13 3-4-2h-24l-1 2h-9l-2-3v-3h2l1-4 3-3-1-4-6-3v-3h-7v-3l7-2 8-2 14-2v-2l25-6 24-7 7-4 2-6h2l1-5v-47l2-10h2z" fill="#AA7877"/>
<path transform="translate(883,590)" d="m0 0h32l11 1v2l15 8 5 5 7 8 7 10 7 8 2 6v4h-2l3 12h-2l1 10-2 7-1-2h-2v-2l-5-2-4 1-6-1-6-2v-4h-3l3 5 10 3h7l4 4-4 2h-3l-7-1-2-2-5-1v-2l-6-4-3-5 1-4h2l-4-13-3-7-2-1h-26l-15-1h-14l-15 4-12 7-7 7-5 9-1 11-2 6-2-2-51-1v-1l52-1v-7l2-18 1-18v-7l4-6 12-12 10-6 13-5 1-1z" fill="#121016"/>
<path transform="translate(872,1648)" d="m0 0h3l2 5 1 18 2 4 1 10v26l-2 7-2 2-52 1-37-1-3-3-1-5v-16l6-24 1-11h20l17-1 6-2 14-3 11-4z" fill="#6D484A"/>
<path transform="translate(1065,1091)" d="m0 0 5 1 152 1v1h-154v7l-1 1-2 13h-2v6l-1 6-1 14-1 3-1 12 1 8h-2l1 4-4 26-2 3v7l-1 4-2 16-1 11-1 2-1 12v18l-2 6-2 13-12 38-4 2-3-2-2-9v-4h-2l-4-23-3-11-4-20-3-19-1 3 4 33 5 22v5l-2-2-3-15-3-9-2 4-3-1-3-14-2-21v-14l3-2 9-1 5-1 4-5 4-9h2l3-10 10-23 12-36 12-41 4-5z" fill="#2C303A"/>
<path transform="translate(518,945)" d="m0 0h12l26 3 1-3 1 3 31 4 10 1v1l-6 1-2 2h-6l-1 3h-2v3l-6 4-4 9h-2v4h-2v12l-4 19-1 34v15l3 26v16l1 3-1 11v6l-2 3-3 2h-3l-3-6-13-60-10-46-10-43-5-21v-5z" fill="#5E6C8F"/>
<path transform="translate(1066,1102)" d="m0 0h1v14l-6 62-3 17 2 1-3 19-3 24h341v1l-341 1-3 26-5 70-3 33-1 44 1 28-3 5-1 1-1 23-4 17-6 14-6 7-1 2h-2l-2 4-6 7h-2v2l-7 2-2 2-4-1 2-4h3v-2l6-5h2l2-4 7-8 9-13 2-4 2-31v-2l-2 1-1 3h-2l-1 4-8-3-1 3-12 1-12-5h-5l5 5 12 6 8 1 7-1-1 4v4l1 6-5 2-1-2-2 2-6 1-8 1-3-3-8-1h-3v-2l10-4 7-2 2-5-5-1-12-6-9-6-12-4-4-1-14-6 3-1 30 10v-2l-2-1 4-1 9 4 6 2 6 1v2l10-1 6-3 6 2 3-6 6-2 2 1-1-8h-2l-3-18 4 2-2-22-4-11-2-12v-5l4 4 2 7v4h2l-2-10-4-17-2-18-3-17-2-5-3-14-5-18-5-26-3-27 2-4 3 13 3 17 3 14 3 12 2 19h2l2 8v5l5 1 3-6 4-14 6-19 3-18 1-1v-21l1-9 1-2 2-22 1-9 1-1v-6l2-3 3-16 1-14h2l-2-10 1-12 1-5 1-14 2-8h2z" fill="#4C597A"/>
<path transform="translate(636,1118)" d="m0 0 4 1 6 10 5 12 7 9 7 2 33 6 5 1 5-2 11 3 1 3 4 1 2 4v5 2h5l3-3 4 1 1-3 6-1 1 3 2 1 2 4v4h-2l3 6 18 6v-2h9l6 1 16 1 1 4-8-1h-13v3l-1 4-2 2v7l-1 4-4 3h-11l-2-5-6-2-10-5-14-5-10-5h-312l1-2 305-1-21-10-12-5-15-7-28-7-13-8-8-4-2-5-5-2-14-7 1-2 6 1 16 6 10 4 9 4 3 1-6-9-3-9-2-13 3-3z" fill="#69484B"/>
<path transform="translate(816,1217)" d="m0 0 2 4 4-1 2 7-5 22-8 26-3 22v9l2 4h5l2-4 4-1 5-5 4 4v2l5 1 3 15v9l-4 5-3 15-4 2-3 8v6l1 2v8l-1 5 4 3 1 5-3 6 1 5 4 4-1 6-3 3-3 5h-4v-2l-8 1v2l5 2 3 1v2l5 2 12 2 5-2 7 2 20 3 3 3 5 2 7-1-1 4-5 1-4-1v-2h-7l-3 1-13-2-6-1-6 1-1 3h-4v-2l-6 1-3-2v-2l-3-1-4-5-3-5-11-4-5 1h-7l-4-2-2-4-3-3v-1l6-1 3-6 4-2v-12h-2v-6l3-1v-6l-3-1 1-7h2l-1-7 1-13 2-16 6-38 4-22 2-8 2-27z" fill="#2A2E38"/>
<path transform="translate(771,1064)" d="m0 0h6l6 4 10 4 5 4v15l-2 13 5 8 4 11 5 21-1 18-1 1-16-1-18-5 1-5 4-3 3 1v-6l-8-15-4-5-6-9-3-1 3 7 6 10 6 12-1 4-5-2v2l-2 2-1 5-2 2-13-1-1-2 2-1 1-5h3l-2-2 3-1 2 1-3-5v-3h-2l-6-11-5-1h-2l-1 8 1 2-2 4-3-11-6-32v-2h30l1-4 2-3 1-7 3-3 1-10z" fill="#6E4849"/>
<path transform="translate(845,643)" d="m0 0 2 3-2 2 1 3 5 2h7l5-2 6-2 2-1v2l4 1h2l5 2v2l6-1 8 5v2h3v5l4 2 3 6v2h2l2 6 1 7-3 2-3-1h-22l-8 5v5l3 3v2l-4 1h-9l-9-1-4-3-1-2-6 1-3-5h13l4-1-12-3h-9l-2-1 1 7-2 1-3-1v-28l1-11 6-10z" fill="#AA7978"/>
<path transform="translate(846,1492)" d="m0 0 2 1 3 12v20l4 23 5 20 2 10 7 36 1 12-3 4-11 3-2 3-7 1-1-3 5-4v-6l-7-1-6 1 1-7-3-1v-3l-9 3-14 7-6 1 5-5 16-10 1-1v-9l-6 1-17 8-1-3 9-7 3-4 1-2h3v-2l4 1 1-4 6-3 3-3-1-4 1-7 1-4-1-3 2-4h2l1-3h2l-1-3-2-2-1-5 4-8-1-9v-6l2-5 1-12 1-7zm-1 143m-2 1h2l1 3h-4z" fill="#2A2E38"/>
<path transform="translate(805,1215)" d="m0 0 11 1-3 2-3 14-5 12-4 13-2 3-3 12-3 8-3 13-4 10-4 7-4 14v1l-9 2-5 3-4 1-2 2h-3v-10l8-36 9-48-4 1h-360v-1l364-1 2-11-6-1-5-6v-1l9-1 3-2 2 2 7-1 2 1h5l3 2 4 2-2 3h-2v-2h-8v2h-2l-1 6h-2v10l-2 13-1 7-1 9v15l2 1 3-10h2l1-10 6-18 3-5 2-6 1-4-3-6 7-2 4-6-2-1z" fill="#313644"/>
<path transform="translate(1028,1666)" d="m0 0 2 2-1 11 4 9 2 5 1 10-2 12-8 1-48 1-3 2-7-1-5-11-6-16v-7l3-2 16-2 16-4 19-5 8-2z" fill="#131017"/>
<path transform="translate(700,969)" d="m0 0 4 1 3 8-1 3-3 2-1 11-2 11-1 12 2 19 2 21 1 13h2l-1 19h2l-1 9v12l-2 7-4 6-12 1-31-5h-15l5-5 3-2 12-2 10-2 6-6h2l2-4 2-3v-15l1-11v-6l2-6-1-1v-9l-2-24v-10l2-14 3-7 3-3 4-9 2-6-1-3z" fill="#3D424F"/>
<path transform="translate(708,1157)" d="m0 0h9l13 2 3 3 23 2 16 4v4l7 1v-2h13l5 1v-2l3 1v4h4l-2-5h12l38 6h9l11 1 6 3-2 5-10 2-14 2-17 1-8 1-17 1-10 2-16-1-13-1-2-1v2l-6-1-12-4-3-4v-3h2l-2-5v-3l-3-1v-2l-6 1-1 2h-6l-1 3h-5l-2-3h2l-1-7-5-3-1-2-11-3z" fill="#121016"/>
<path transform="translate(780,1195)" d="m0 0h13l8 2 2 9 1 3 4 1 1 2 20 6h6v2h7l12 3-3 12-2 18-3 4-14-1v2l-8 7-4 4-5-1v-6l3-13 5-22-1-6h-4l-2-4-10-1-2 2 1 3-5 6-5 1 2 4 2 2-3 4-2 6-4 10-5 17-1 5h-2v5l-1 2-1 4-4-2v-15l1-9 1-7 2-13 1-10h2l1-6h2l-1-3 9 1v2h2v-4l-4-1-1-1h-6l-4-1-6 1 2-9-2-1 2-6h2l-1-6z" fill="#121016"/>
<path transform="translate(788,939)" d="m0 0h1v57l8 61 1 6v13l-11-6-7-3-9-4-3-2v-2l-4-2-2-2 1-8v-17l5-22 6-22 5-24 6-20z" fill="#2C2F3A"/>
<path transform="translate(859,1225)" d="m0 0h82l10 2 45 2-1 8-4 3h-7l-8 2h-9l-9-6-3-3v-3l-11 1 5 16v4l-7 1-9 3-16 1-6-3-4-7v-2h-2l-1-7 1-9-13 1-11-1 2 2-1 17 1 17-2 4-4 2-6-4-5-16-1-3-4-2-2-3v-9l-1-7z" fill="#121016"/>
<path transform="translate(864,1650)" d="m0 0 2 1-10 8-2 5v6l-1 7v11l-2 11-10 12-3 3-7 3h-8l-4-6-6-12-7-12-6-13-1-8-1-3-5 2-2-4h20l17-1 6-2 14-3 11-4z" fill="#121016"/>
<path transform="translate(1066,1102)" d="m0 0h1v14l-6 62-3 17 2 1-3 19-3 24h341v1l-341 1-3 26-5 70-2 9-2-4h-2v-5l-8 2v-2h-2v-2h-2l1 5-1 2h3l-1 5h-2v-2h-2l-1 2-3-17-2-5-3-14-5-18-5-26-3-27 2-4 3 13 3 17 3 14 3 12 2 19h2l2 8v5l5 1 3-6 4-14 6-19 3-18 1-1v-21l1-9 1-2 2-22 1-9 1-1v-6l2-3 3-16 1-14h2l-2-10 1-12 1-5 1-14 2-8h2z" fill="#414653"/>
<path transform="translate(914,775)" d="m0 0 5 3v2l4 1 3 5 8 8 4-2 6-9 3-3v7l-3 8h2l2 7 3 1v3h2l1-3 6 3 2 5-1 7-12 22-4 4 2-6-1-7h-1l-1-10-1-3h-2v-7l-5-1-6 2-1 3-1-1-3 3-11 8h-6v2l-5 2h-8l-5-2-7-1-6-5-3-2 1-4 6-3 9-2 8-5 2-3h2l1-3h2l1-6 1-8 1-3h2l1-6z" fill="#6E4849"/>
<path transform="translate(448,722)" d="m0 0h2l2 14 1 4v327l-4-1-2-11-1-26v-263l2-37z" fill="#0D134D"/>
<path transform="translate(821,806)" d="m0 0 5 1 4 6-1 5-12 14-39 45-4 4 1 4 11 12 8 10 1 9-2 3-1 6-4-1-9-11-13-15-10-13 1-7 12-14 9-10 7-8 24-28 10-11z" fill="#08090B"/>
<path transform="translate(843,877)" d="m0 0 3 1-1 1v5h-2l-1 6h-2v6l-5 9-7 15-4 8h-2v-9l3-9h-2l-1 4-6 19-2 9-7 15-7 21-2 7-2 4-3 1-2-4 1-9 1-18 2-8v-7l2-2-2-6 1-4-3-1-1-3v-9l2-3 1-6h4 1l7-2 2-9 2-7 5-5 1 4h2l1-3h2l1-4h3v-3h2v3l4-1v2h6v-6z" fill="#2A2E38"/>
<path transform="translate(664,610)" d="m0 0h14l10 6 6 9 1 3v14l-5 8-8 7-5 2h-12l-8-4-7-8-3-7v-11l6-12 8-6z" fill="#070709"/>
<path transform="translate(610,611)" d="m0 0 11 1 8 4 6 7 3 6v13l-4 8-5 5-6 4-3 1h-11l-9-4-7-8-3-7v-11l4-9 4-5 8-4z" fill="#09080A"/>
<path transform="translate(725,611)" d="m0 0h8l9 3 7 6 5 10v11l-4 9-9 8-5 2h-11l-8-3-8-9-3-7v-11l3-8 8-8z" fill="#08080A"/>
<path transform="translate(760,1113)" d="m0 0 5 2 9 13 3 4 6 12v6h-4l-4 3-1 4 6 1 12 3h7l28 6 30 6 1 2h-4l4 2-13-1-31-5-12-1 3 6h-5l-1-5-2-1v2l-18-1v2l-4 1-3-2v-4l-24-4-15-1v-3h9v-2l3-1 1-4-1-5-3 1-1-6v-4-5l-1-3 2-6 6-1 4 5 3 6v2h2l3 6v2h-4l2 3-4 1-1 4-1 1 13 2 3-9h2v-2l5 1-1-5-10-19-3-4z" fill="#2F323C"/>
<path transform="translate(883,590)" d="m0 0h32l11 1-3 2-14-1-36 1v2h-3l3 2v4h2l-2 8-2 2-2 9 2 2-1 4 2 4-4 1v2l-10 3-12 7-7 7-5 9-1 11-2 6-2-2-51-1v-1l52-1v-7l2-18 1-18v-7l4-6 12-12 10-6 13-5 1-1z" fill="#181B23"/>
<path transform="translate(981,698)" d="m0 0 4 5 1 11-3-3 2 6-4 13-4 6-10 9-8 7h-2l-1 13v29l3 10 2 1-2 1-5-2-1 2h-2v-3l-4-1-1-7h-2l2-8-1-2h2l-1-4-4 4-1 2-4-1-1-6-2-1 1-10-1-7 1-11 5-2 4 1 3 1 2 8v5l2-1 2-15 4-8 6-4h2l2-6-4-2 2-5 2-4v-7l4-7 4-5z" fill="#A67777"/>
<path transform="translate(791,925)" d="m0 0 3 4v2l2 1 1 9v3l-1 1-1 11-1 3-1 23-1 5 4 2 1-4 3-10 2-2 2-6 3 2-1 8v51l-1 21v16l-2 11h-2l-1 9h-1l-3-28-6-47-2-14v-56l-2 1 3-10z" fill="#3D434F"/>
<path transform="translate(1042,1657)" d="m0 0h2l7 28 10 32v3h-92l-1-2h6l4-2 56-1 1-13-2-12-4-9-1-7 1-8 10-5h2z" fill="#6D494B"/>
<path transform="translate(873,854)" d="m0 0h2l4 18 1 7 1 27v2h3v2l7 1 8-6h6l10 6 11 2v1l-12 1-4 3-6 1h3l-5 5-11 6-7 9-3 3-4 6-1 2h-2l1 3-3 6-3-1 2-12 6-21 3-12h-5v-7l-3-5-1-1-1-7-2-1-1-6 4-24v-6z" fill="#191C24"/>
<path transform="translate(780,1195)" d="m0 0h13l8 2-1 4-1 13 1 2 5-1v4l-2 5-4 3-4 1 2 4 2 2-3 4-2 6-4 10-5 17-1 5h-2v5l-1 2-1 4-4-2v-15l1-9 1-7 2-13 1-10h2l1-6h2l-1-3 9 1v2h2v-4l-4-1-1-1h-6l-4-1-6 1 2-9-2-1 2-6h2l-1-6z" fill="#191C24"/>
<path transform="translate(1027,1394)" d="m0 0 2 3 3 8 1 14 1 9-5-3 3 13v5h2v5l2 1-1 2-8 1-2 6-2 1-6-2-5 3-7 1-15-5-10-4-1 1v2l-6-1-28-9-15-3-17-1h-11l-12-3-6-2v-2l18 4h14l22 3 23 6 15-1 5 2h10l3-1 1-5 2-2 1-13h2v-9l4-1 3 7 2 11v11l-1 3 3 3h11l3 1 2-4 3-1v-8l-3-9-3-10-5-10 1-2 5 2 5 6v-10l-3-8z" fill="#2C303A"/>
<path transform="translate(990,951)" d="m0 0h3l-1 4-5 10-3 9-4 24-3 21v8h2l-1 6-5 20-2 4v12l-1 7 1 5-4 24-1 10-1-3h-2l-1-3-1-12h2l-1-9 1-12h-2l1-9v-6l2-4 3-24 2-6 1-17 2-9 1-11 3-6 3-14 8-16z" fill="#181B23"/>
<path transform="translate(980,806)" d="m0 0 5 1 9 10 9 11 7 7 7 8 12 14 7 8 3 4-1 4h-4l-7-5-3-1-3-3-6-3-10-8v-2l-4-2-10-11-5-6-4-8-2-12-1-4z" fill="#070709"/>
<path transform="translate(632,1119)" d="m0 0 5 1 6 9 7 13 7 10v10h-5v2l-9-1-10-3-9-3-8-4-2-5-5-2-14-7 1-2 6 1 16 6 10 4 9 4 3 1-6-9-3-9-2-13z" fill="#AA7A79"/>
<path transform="translate(871,844)" d="m0 0 3 1v9l-2 2-1 11-3 22v3l3 1 1 7 3 4 1 7-1 2h5l-4 20-5 17h-2v-3l-4-2-5-15-1-6v-15l-1-5 5-10 4-23 1-6v-11z" fill="#2A2E38"/>
<path transform="translate(1029,1198)" d="m0 0h1l1 10 1 16 1 4 1 23-4 12-1-2-8 2-4-9-1-13 2-5-1-6-4-2 1-4 3-4 4-9h2l3-10z" fill="#1A1D25"/>
<path transform="translate(785,977)" d="m0 0h1l1 6 2 24 5 35 3 15 1 6v13l-11-6-5-2v-2l5-5 2-4-2-10-3-8-2-6-2-14-1-6 1-6v-12l2-7z" fill="#1A1D25"/>
<path transform="translate(859,1225)" d="m0 0h21l6 1v1l-5 1 2 2-1 17 1 17-2 4-4 2-6-4-5-16-1-3-4-2-2-3v-9l-1-7z" fill="#110F15"/>
<path transform="translate(1026,1333)" d="m0 0h2v2h2v2h2v2l4-2h4v5h2l1-4 2 3-1 17-1 12-1 40-2 1-1-11-5-16-1-4-2-4v-3h-2l-2-8-1-11v-9h2v2l2-1 1-4h-3l-1-6z" fill="#57576A"/>
<path transform="translate(870,1621)" d="m0 0h1l1 10 2 7 1 10-19 5-11 4-3-1v-1-2l-8 1-4-3 3-9 9-5 1 2 2-1 1-3 1 2 7-2 4-4 9-2 2-3z" fill="#3C424E"/>
<path transform="translate(810,1242)" d="m0 0h2l-1 12-4 34h-2l-1 14-3 14-2 14-2 8-2 10-6 20-5 5h-1v-10l2-9v-6l4-5 1-9-1-1v-5l6-1v-9l2-10 2-2 1-19 2-10 2-14 4-19z" fill="#4C4C5B"/>
<path transform="translate(1076,904)" d="m0 0 1 2 5-1 8 16 5 13 2 12v13l-3 18-4 13-4-1 1-8-1-1v-8l1-3v-18l-3-18-3-11-3-6-3-9h-2v-2z" fill="#4E4F5F"/>
<path transform="translate(1030,1373)" d="m0 0 2 3 3 6 3 10 3 14 1 8 1 28-3 5-3 4-3-3v-5h-2l-3-18 4 2-2-22-4-11-2-12v-5l4 4 2 7v4h2l-2-10z" fill="#4C5673"/>
<path transform="translate(806,1120)" d="m0 0 5 3 4 5 2 6 9 3 1 2v13l-4 9v5h-7l-8-3 1-19-5-22z" fill="#121016"/>
<path transform="translate(1e3 1673)" d="m0 0h7l-3 7-10 7-6 3h-2l-1 3-11 1h-7l-5-4-2-1v2l-6-1v-6l2-2 16-2 16-4z" fill="#030304"/>
<path transform="translate(1e3 1236)" d="m0 0 2 2 4 24 4 18 3 12 2 19h2l3 15 2 4h7l6 2 1 3 3-1 2-3-1 10-1 5-2-4h-2v-5l-8 2v-2h-2v-2h-2l1 5-1 2h3l-1 5h-2v-2h-2l-1 2-3-17-2-5-3-14-5-18-5-26-3-27z" fill="#545467"/>
<path transform="translate(854,764)" d="m0 0h32l18 2-1 5-6 7-6 10-6 3-1 2-4 1-6 2-4-1-3-2 1-2 9-2 5-3h2v-4l-3 1v-2l9-4 3-3-1-3-10-1-22-1-3 1v5l2 3v3l4 1-4 1-6-7-5-6 1-3h4z" fill="#664344"/>
<path transform="translate(771,1064)" d="m0 0h6l6 4 5 2 2 3-4 1-3 4-1 5-4 10v4l-5 2-7-1-4-3 1-7 1-1 1-7 3-3 1-10z" fill="#AA7978"/>
<path transform="translate(969,640)" d="m0 0 2 3 2 12-1 10-1 7-1 1-1 13h201v1h-202l-3-3-2-1-2 7-4 2-3-5 1-2h3l2-5 1 2h2v-2l2-1v-5h-3l-1 2-3-2 5-3-3-3h-9l-9-4-2-5h3v4l6 1 9 1 2-2 4 4v2l3 1 1-8v-8l1-1-2-7v-4h2z" fill="#393C48"/>
<path transform="translate(1058,1186)" d="m0 0h1l-1 9 2 1-3 19-3 24h341v1l-341 1-1 7-1-4h-2l1-8 3-34 2-5z" fill="#5C6480"/>
<path transform="translate(412,931)" d="m0 0 3 3v16l1 18v24l1 11-1 7v16l-1 12v8l-1 7-3 2v-109z" fill="#050A48"/>
<path transform="translate(1075,973)" d="m0 0 2 2 1 4 2 45v10l-2 21-3 16-2 6-2 10h-2v-6l1-2h-2l1-8 3-13 1-7 3-12-1-4-2-35v-17l1-9z" fill="#4A4B59"/>
<path transform="translate(1352,626)" d="m0 0 3 3v15l1 8v80l-1 16v29l-1 23h-1l-1-78-1-29v-32z" fill="#050A48"/>
<path transform="translate(756,1078)" d="m0 0h8v6l-4 9h-30l-1-5v-8l3-1z" fill="#040506"/>
<path transform="translate(1043,1282)" d="m0 0h1v13l-1 3h-3v9l4-4 3-2v24l-2 11-4-1-2-3h-5v-2l-7 1-3-5v-2l5 1 3-6 4-14 6-19z" fill="#3E4450"/>
<path transform="translate(815,1421)" d="m0 0 5 2v2l5 2 12 2 5-2 7 2 20 3 3 3 5 2 7-1-1 4-5 1-4-1v-2h-7l-3 1-13-2-6-1-6 1-1 3h-4v-2l-6 1-3-2v-2l-3-1-4-5-3-5z" fill="#2B2F39"/>
<path transform="translate(939,1614)" d="m0 0 5 1 9 4 8 5 1 1v5l-6 2-6-3-5 1-2 1v5l-5 1-11-7-1-3 6-9h3v-2z" fill="#5E6C8F"/>
<path transform="translate(842,1522)" d="m0 0 1 3 2 3 3 2-4 9-3 7 6-1-1 5h2l-2 6-3 4 1 7-3 10-1 2-1 9-12 5-5 4-6 3-3 1v2l2 1-10 4v-3l9-7 3-4 1-2h3v-2l4 1 1-4 6-3 3-3-1-4 1-7 1-4-1-3 2-4h2l1-3h2l-1-3-2-2-1-5 4-8-1-9v-6z" fill="#3D434F"/>
<path transform="translate(802,996)" d="m0 0 2 2 1 24-1 17 1 17v9l-2 11h-2l-1 9h-1l-2-22v-11l2-29v-23l1-2h2z" fill="#555568"/>
<path transform="translate(845,613)" d="m0 0h2l-2 5h-2l1 5 1 4-2 2 1 4 3 6 2 2-10 9-5 9-1 11-2 6-2-2-51-1v-1l52-1v-7l2-18 1-18v-7l2 3 6-7h2z" fill="#2B2E38"/>
<path transform="translate(774,986)" d="m0 0 2 2-1 12v16l-3 19v12l-2 6-5 2-1 2-2-2 1-8v-17l5-22z" fill="#404755"/>
<path transform="translate(627,1125)" d="m0 0 3 3 5 16 6 9-1 2-6-4-9-3-7-3-10-4-5-4-3-2v-2l9-2h7l4 3 3-1 1-6z" fill="#3E434E"/>
<path transform="translate(953,1228)" d="m0 0h17l26 1-1 8-4 3h-7l-8 2h-9l-9-6-3-3v-3h-2z" fill="#121016"/>
<path transform="translate(731,1094)" d="m0 0h30l-2 4-7 6-6 3-3 7-2 8-3 4-3-8z" fill="#FEFEFE"/>
<path transform="translate(624,1032)" d="m0 0h3v5l-3 1v2l7 1 1 10 4 7v6h-12v-2l-3-1-5-7-1-12 2-3 3-1 3-5z" fill="#040405"/>
<path transform="translate(938,749)" d="m0 0 8 1 2 3-1 20-4 11-2 3-4-1-1-6-2-1 1-10-1-7 1-11z" fill="#5F6D8F"/>
<path transform="translate(858,768)" d="m0 0h11l19 1 6 2-1 4-4 4-9 1h-21l-3-5v-5z" fill="#B08180"/>
<path transform="translate(853,1602)" d="m0 0 4 1-2 5 1 5h3l-1 8-3 8-3 1-1-6-7-1-6 1 1-7-3-1v-3l-4-1 12-6z" fill="#3D434F"/>
<path transform="translate(744,1124)" d="m0 0 5 1 3 4 3 6v2h2l3 6v2h-4l2 3-4 1-1 4-3 1-4-1-1-5-3 1-1-6v-4-5l-1-3 2-6z" fill="#121016"/>
<path transform="translate(931,1509)" d="m0 0 16 1 12 2 3 3 13 5 2 1v5l-1 1h-10l-8-4v-2l-7-1-9-3-11-3z" fill="#4C597A"/>
<path transform="translate(883,590)" d="m0 0h32l11 1-3 2-14-1-36 1v2h-3l3 2v4h2l-2 8-2 2-2 6-1-4-1-3-5 3-2 2-1-3 1-2-4 1-2-1v-3l3-3v-3l4 1v-2h2l1-2 1-1-4-1 12-5z" fill="#22252F"/>
<path transform="translate(981,940)" d="m0 0 1 4-6 14-7 25-7 35-3 14h-3v-10l5-25 4-18 6-19 7-15z" fill="#3D434F"/>
<path transform="translate(804,967)" d="m0 0 3 2-1 8v51l-1 12-2-2 1-25-1-15h-3v30l-2 24-1 5h-1l-1-7v-17l2-4v-26l2-25 3-5z" fill="#4C4C5B"/>
<path transform="translate(1014,1469)" d="m0 0h5l-1 4v4l1 6-5 2-1-2-2 2-6 1-8 1-3-3-8-1h-3v-2l10-4 12-4 1-1 3-2z" fill="#4B5878"/>
<path transform="translate(826,1221)" d="m0 0 13 1 8 2-2 6-4 3-2 4-5 1 1-7-4-1h-4l3 3v7l-3 7h-2l-1 4-3 3h-2l4-19 3-10z" fill="#010101"/>
<path transform="translate(728,625)" d="m0 0 7 1 4 2 1 7-3 7-5 3-7-1-4-4-1-2v-8l4-4z" fill="#FDFCFC"/>
<path transform="translate(760,1113)" d="m0 0 5 2 9 13 3 4 6 12v6h-4l-4 3-1 4h-16v-1h7l3-9h2v-2l5 1-1-5-10-19-3-4z" fill="#110F15"/>
<path transform="translate(669,625)" d="m0 0 7 1 5 5v7l-5 6-2 1h-6l-5-4-1-2v-10l4-3z" fill="#FDFDFD"/>
<path transform="translate(1024,932)" d="m0 0h2l-8 16-14 24-8 13-4 7h-2l-1 5h-2l2-10 10-18 9-15 7-11 6-8z" fill="#191C24"/>
<path transform="translate(852,1015)" d="m0 0h1v10l-4 21-2 14-2 11-5 26-4 17h-2l1-14 6-33 3-17 4-19z" fill="#3D434F"/>
<path transform="translate(896,1581)" d="m0 0h6l1 3 6 1 11 6 13 5 10 3v2l-10 2-9-2h-5v-2h-2v-2l-4-2-12-7-3-1v-2h-2l-1-3z" fill="#4C597A"/>
<path transform="translate(612,625)" d="m0 0 7 1 4 5-2 9-6 5-7-1-4-5v-9l4-4z" fill="#FDFDFD"/>
<path transform="translate(816,1217)" d="m0 0 2 4 4-1 2 7-5 22-5 16h-2v-16l3-25z" fill="#292D37"/>
<path transform="translate(820,1175)" d="m0 0h11l4 1 22 2 6 2 1 2-11 2-13-1h-18l-9-4 2-3z" fill="#010101"/>
<path transform="translate(779,1196)" d="m0 0h9l2 3 2-1 3 2-4 4 1 3-4-1-2-2v-2l-1 1-1 5-3 1-1 3-2 1v2h5l1-3h2v-4h6l2 5v4h3l1 4h-5l-2-2h-6l-4-1-6 1 2-9-2-1 2-6h2l-1-6z" fill="#141319"/>
<path transform="translate(859,597)" d="m0 0h6l-1 2-3 1v2l-4-1 1 3-2 3h-2v3h6v6l-2 5-4 1-3-8-3 1 1-4-5 4-6 7h-2l-1 5h-1v-8l7-8 8-8z" fill="#19171F"/>
<path transform="translate(797,1170)" d="m0 0 3 1v4l7 3-2 1-2 6h-4l-1-2-7-3h-7l-7 1-3-2v-4h4l1-4h13l5 1z" fill="#020203"/>
<path transform="translate(1093,945)" d="m0 0 4 1v13l-3 18-4 13-4-1 1-8-1-1v-8l1-3 1-12h1l1 8h2v-13z" fill="#3E4451"/>
<path transform="translate(826,878)" d="m0 0 2 1-3 7h-3v2l-5 4-2-4-4 5-1 6-3 9h-2l-1 2h-3l2 2-4 1v-3l-3 1-2-1 1-2 6-10 11-11z" fill="#414756"/>
<path transform="translate(912,1229)" d="m0 0h13l13 1 1 2 4 1-1 2h-6l-6 5-7 1-12-6v-5z" fill="#010101"/>
<path transform="translate(1021,1605)" d="m0 0 2 2-5 9-3 10-4 2-1 3h-3v-4l-12 3-4-1 10-7 6-5h2l1-3 6-5h3z" fill="#3D4451"/>
<path transform="translate(780,1195)" d="m0 0h13l8 2-1 4-1 13 1 5-3 1-1-2-3-1-1-9h-6l1 5h-3l-3 3-4-1 1-3h2l1-4h2l1-5-1-2 4 1 2 4 3 1v-2l-2-1 4-4-3-1h-3v-3l-3 1-5-1z" fill="#2D2F3A"/>
<path transform="translate(942,1117)" d="m0 0h1v10l-3 7-3 5 1 4h11l2 2-7 3-3 2-4 3-5-3-1-10h3v-9l4-10 2 1z" fill="#2A2E38"/>
<path transform="translate(832,1149)" d="m0 0 4 2 1 5 3 5 7 4v5h-10l-6-2-5-2 1-7 2-5z" fill="#121016"/>
<path transform="translate(1060,1091)" d="m0 0 3 1-6 23-11 36-10 29-7 16-1-3 7-18 12-37 11-40z" fill="#FEFEFE"/>
<path transform="translate(799,1200)" d="m0 0 3 1 2 8 4 1 1 2 10 3 8 3v7l-6 23-2 5-1-4 5-22-1-6h-4l-2-4-12-1-4 1-2-4z" fill="#131118"/>
<path transform="translate(1007,1586)" d="m0 0 4 1 3 2-4 8h-2l-1 2-4 2-5 5-3 4-4 3h-2l1-6 4-6 3-4h2l1-4 3-4h2v-2z" fill="#3D434F"/>
<path transform="translate(1028,1360)" d="m0 0h2l1 2v6h3l2 9 3-1 3-4v38l-2 1-1-11-5-16-1-4-4-11z" fill="#5E6C8F"/>
<path transform="translate(896,1323)" d="m0 0 4 1v36h-2l-1 5-2 2-3-9h2v-31z" fill="#2A2E38"/>
<path transform="translate(647,1132)" d="m0 0 4 4 1 5 3 1 1 4 17 4 12 2 15 3 6 2-3 3-11-2-32-6-6-5-5-8-2-4z" fill="#131118"/>
<path transform="translate(1066,1102)" d="m0 0h1v14l-5 53h-1l-3-15 1-12 1-5 1-14 2-8h2z" fill="#434958"/>
<path transform="translate(828,1660)" d="m0 0h7l-1 5-9 6h-8l-8-3-2-3-3-2z" fill="#010101"/>
<path transform="translate(846,1492)" d="m0 0 2 1 3 12v24h-8l-1-5 1-11 2-12v-7z" fill="#2C303A"/>
<path transform="translate(884,1434)" d="m0 0 18 4h14l22 3 23 6 15-1 6 3v1l-9 1v1l-9-1-19-6-15-3-17-1h-11l-12-3-6-2z" fill="#2D313B"/>
<path transform="translate(1021,1329)" d="m0 0 2 1 4 24 2 16 5 19v5l-1-2h-2l-4-13-1-1-2 4-1-5v-31l-2-12z" fill="#2D313C"/>
<path transform="translate(870,1621)" d="m0 0h1l1 10 2 7 1 10-13 1 1-8-1-4 2-1 1-5 4-5z" fill="#4A5674"/>
<path transform="translate(952,1610)" d="m0 0h2v2h2v-2l9 1 3 1 1-2v2l5 1 1 4-1 3-6 4v-2l-5-1-7-4-2-2-4-1-1-3z" fill="#5E6C8F"/>
<path transform="translate(1050,1261)" d="m0 0h1l-1 19-2 29h-1l-1-6-4 2-2 5h-1v-9l1-3h3l1-16 3-5 1-14z" fill="#4E5369"/>
<path transform="translate(879,870)" d="m0 0 2 3 4 11v2h2l2 7-2 7v2h-2v2h5l-6 4h-3l-1-4-1-25-1-7z" fill="#6E4849"/>
<path transform="translate(1078,1035)" d="m0 0h1v13l-4 23-2 6-2 10h-2v-6l1-2h-2l1-8 3-13 1-7 3-10z" fill="#4B5161"/>
<path transform="translate(1012,1557)" d="m0 0h1l1 7-2 2 4 2h-6l4 2 10 3 1 4-3 1-10-1-3 2v-2h-2v-2h-2v-2l-5 2v2h-2l2-4 8-12 2-1 1 2z" fill="#3F4451"/>
<path transform="translate(1e3 1236)" d="m0 0 2 2 4 24 4 18 3 12v6h-1l-3-12-1-1-2 3-4-21-3-27z" fill="#3E4350"/>
<path transform="translate(928,991)" d="m0 0h5v4l6-1v6l-3 1 1 7v4l-5-1v-5l-6 5h-1v-6l3-1-2-9z" fill="#888D9C"/>
<path transform="translate(1030,1373)" d="m0 0 2 3 3 6 3 10 3 14v3h-3l1 7v4h-3l-1-7-2-13-2-5v-3h2l-2-10z" fill="#3D434F"/>
<path transform="translate(1051,1227)" d="m0 0h1v9l-2 8h2v13l-2 5-1 1-1 14-4 5v-9l2-6v-21l1-9 2-2z" fill="#424857"/>
<path transform="translate(1026,1333)" d="m0 0h2v2h2v2h2v2l4-2h4v5h2l1-4 2 3-1 17-5-3-1-12-2 1-2 6-1-2h-5l2-2 1-4h-3l-1-6z" fill="#4D5A7B"/>
<path transform="translate(806,1126)" d="m0 0h2l3 7 1 10 4 4 2 8-3 6v2l-6-2v-17l-3-13z" fill="#020203"/>
<path transform="translate(624,1032)" d="m0 0h3v5l-3 1v2l7 1-1 2-11-1-2-1 1 4 4-2 3 2 4 12h2l-1 3h-4l-4-10h-4v5l-2-1-1-12 2-3 3-1 3-5z" fill="#17161D"/>
<path transform="translate(877,868)" d="m0 0 2 4 1 7 1 18h-2v3h-2l-2-6 1-5-5-2-2-6 2-2 1-5 4-1z" fill="#131118"/>
<path transform="translate(630,1137)" d="m0 0 4 4 6 11v3l-6-4-9-3-8-4v-3l4-2h7z" fill="#2A2B35"/>
<path transform="translate(857,771)" d="m0 0h3l2 2 15-1 1 4 4-1 2 3-4 2h-21l-3-5z" fill="#FDFDFD"/>
<path transform="translate(936,643)" d="m0 0 5 3 4 9 4 2h7l5-1 2 9-1 2-3-2-4 1-6-1-4-5v-2h-2l-5-8-2-4z" fill="#191C24"/>
<path transform="translate(1027,1394)" d="m0 0 2 3 3 8 1 14 1 9-6-6v6l-3-3-3-7-3-8 3-1 7 6 1 2v-10l-3-8z" fill="#292D37"/>
<path transform="translate(890,744)" d="m0 0 3 1-2 6-18 6-8-1 1-4 4-2 14-2z" fill="#6E4849"/>
<path transform="translate(802,996)" d="m0 0 2 2 1 24-3 6h-2l-1-10v-18l1-2h2z" fill="#4C597A"/>
<path transform="translate(1035,1358)" d="m0 0 4 1v2h2l2 2v7l-3 6-4 2-2-5v-5h-3l1-4 1-1-1-3h3z" fill="#58586B"/>
<path transform="translate(863,1630)" d="m0 0 3 1-2 6h-2l2 4-1 6-1 2 10-1-4 2-12 2 1-10-1-2 1-5-2-2 3-2z" fill="#3C434F"/>
<path transform="translate(750,1352)" d="m0 0h1l1 12-2 4-3 16h2l3 9-3 7-3-2-2 1 2 3-4-2 2-11z" fill="#505467"/>
<path transform="translate(765,1020)" d="m0 0 1 4 2 1v3l3-1v2l-2 1 1 3-1 6-3-1-1 2 3 1v11l-5 4-1-1 1-8v-17z" fill="#525D7B"/>
<path transform="translate(845,704)" d="m0 0 8 1 10 3-2 2v9l-3 2-1-3 1-3h-9l-3-8z" fill="#23262F"/>
<path transform="translate(873,854)" d="m0 0h2l3 13-2 7-3 1-2 6h-3l3-22 1-4z" fill="#181B23"/>
<path transform="translate(1025,1328)" d="m0 0 2 2h7l6 2 1 3 3-1 2-3-1 10-1 5-2-4h-2v-5l-8 2v-2h-2v-2h-2v-2h-2z" fill="#4E4E5F"/>
<path transform="translate(814,1218)" d="m0 0h1v13l-2 18-1 16-3 13h-1l1-18 3-18-3 1 1-5 3-19z" fill="#4A4B59"/>
<path transform="translate(1015,1667)" d="m0 0h10l-3 2-5 2-21 5-9 2h-9l3-2 7-2h5l6-3 8-2z" fill="#596789"/>
<path transform="translate(1088,928)" d="m0 0h2l2 7h2l2 3v7h-3l-1 20h-2l-3-14-1-13 2 1 2 17v-16z" fill="#434754"/>
<path transform="translate(891,705)" d="m0 0 9 1h7l6 2-2 2-5 2h-9l-5-3-5 2-2 2-2-1 2-4z" fill="#292D37"/>
<path transform="translate(1048,1084)" d="m0 0 17 1 6 2-2 1v4h-5l-1-1-15-2-5-1v-3z" fill="#191C24"/>
<path transform="translate(1027,1530)" d="m0 0h1v15h-2l-1 19-1-2h-2v-3l-3 1 1-3 2-1-1-5 3-15z" fill="#3B3F4B"/>
<path transform="translate(724,1160)" d="m0 0h8l1 2 23 2 6 1 1 3-3 1-7-2-9-1-10 1-9-5z" fill="#020203"/>
<path transform="translate(923,593)" d="m0 0 5 1 10 5-3 2h-3l-7-2-4 2-1 2-10 1-7-2v-1l17-3 4-3z" fill="#191C24"/>
<path transform="translate(855,1634)" d="m0 0 3 1-1 6 1 4-1 6-1 2h-7l4-7v-4h-5v-4z" fill="#4B5777"/>
<path transform="translate(885,1402)" d="m0 0h1l1 10 1 1 2 1v5l-5 4-5 1-1-1v-7l3-1z" fill="#282C36"/>
<path transform="translate(1025,1377)" d="m0 0 4 4 2 7-1 6 4 16 1 19-2 1-2-1 1-3 1 1-2-22-4-11-2-12z" fill="#4A4D5E"/>
<path transform="translate(1093,945)" d="m0 0 4 1v13l-2 13-2 1v-5h-2z" fill="#333846"/>
<path transform="translate(786,1208)" d="m0 0h6l2 5v4h3l1 4h-5l-2-2h-6l-6-2 4-2 1-3h2z" fill="#17161D"/>
<path transform="translate(1078 1e3)" d="m0 0h1l1 33-2 6-3-2v-21h2z" fill="#3D4350"/>
<path transform="translate(1e3 1473)" d="m0 0h5l2 3-1 2-5 2-9 1-10 2h-3v-2l10-4z" fill="#353A45"/>
<path transform="translate(831,689)" d="m0 0 2 4-1 5 2 1v2l-5 1v-2l-9 7-3 5v8l-4-5-1-5 5-5 6-4 6-5z" fill="#60637C"/>
<path transform="translate(816,1216)" d="m0 0 9 1 2 2-1 9-6 24-2 1 1-8 4-20-1-4h-4z" fill="#16181F"/>
<path transform="translate(985,831)" d="m0 0 6 5 7 8 6 7-1 2-7-4-8-8-3-7z" fill="#FEFEFE"/>
<path transform="translate(806,1610)" d="m0 0h2v2l3 1-2 7-5 3-5 1 2-4v-6l2-3z" fill="#5F6D90"/>
<path transform="translate(771,1029)" d="m0 0 2 1-1 5v12l-2 6-5 2-1 2 1-4 2-2v-10l-2-1 1-4 3 3 1-9z" fill="#3E4450"/>
<path transform="translate(1012,1284)" d="m0 0 3 2 4 15v10h-2l-5-18z" fill="#52576C"/>
<path transform="translate(1060,1163)" d="m0 0h1v15l-4 17-2-1 1-13 2-13v-4z" fill="#424958"/>
<path transform="translate(944,665)" d="m0 0 5 1 7 1 6 1 2 4-6 2-1-1-7-1-2-2-5-1z" fill="#121016"/>
<path transform="translate(591,1135)" d="m0 0 7 1-3 3 5 2 14 7 2 5-19-9-3-3-1-4z" fill="#775357"/>
<path transform="translate(1031,1392)" d="m0 0h2l4 13v3h2l-1-7v-5l2 4 1 9h-3l1 7v4h-3l-1-7-2-13-2-5z" fill="#4F5265"/>
<path transform="translate(858,885)" d="m0 0 3 2-1 10-3 5-5-1 1-6z" fill="#2A2E38"/>
<path transform="translate(1022,866)" d="m0 0 6 2 10 7 9 5-1 2-1 3-18-14z" fill="#474957"/>
<path transform="translate(747,1153)" d="m0 0 4 1-1 5-1 2 6-1v3l-22-1v-2h9v-2l3-1z" fill="#474B5B"/>
<path transform="translate(755,1101)" d="m0 0h9l1 4-1 3h-2v2h-5l-3-4-4-1z" fill="#AA7D7D"/>
<path transform="translate(1076,904)" d="m0 0 1 2 5-1 2 3-2 8h2v2h-2v2l2 1-3 1-3-6-3-9h-2v-2z" fill="#3C424E"/>
<path transform="translate(769 1e3)" d="m0 0 2 1v10l-1 5 1 1v5l-3 2-2 3 1-7-1-1v-9z" fill="#4F5163"/>
<path transform="translate(966,678)" d="m0 0h2v7l-5-2-2 7-4 2-3-5 1-2h3l2-5 1 2h2v-2z" fill="#4C4D5C"/>
<path transform="translate(1078,1035)" d="m0 0h1v13l-2 13-3-1-1-10 4-10z" fill="#474E5F"/>
<path transform="translate(966,682)" d="m0 0 2 3v2l3 1-4 8-3 1 1-4-3 1v-9l1-2z" fill="#5D6786"/>
<path transform="translate(970,1446)" d="m0 0h6l6 3v1l-9 1v1l-9-1-5-2v-2z" fill="#2B2F39"/>
<path transform="translate(884,1436)" d="m0 0 6 1 12 3h19l-1 2-4 1-1 2h-5l-7-2-15-4h-3z" fill="#4C597A"/>
<path transform="translate(1044,1293)" d="m0 0 4 2v14h-1l-1-6-4 2-2 5h-1v-9l1-3h3z" fill="#4F5061"/>
<path transform="translate(780,1196)" d="m0 0h8l2 3 2-1 3 2-4 4 1 3-4-1-2-2v-2l-5-3z" fill="#1B1E26"/>
<path transform="translate(798,1029)" d="m0 0h1v13l-2 15h-1l-1-7v-17z" fill="#4A4B59"/>
<path transform="translate(972,1034)" d="m0 0h2l1 4v8l-2 7-4 2 1-12z" fill="#121117"/>
<path transform="translate(768,1218)" d="m0 0h4v2h2v3l2 1-2 4-7-3-4-6z" fill="#262933"/>
<path transform="translate(929 1e3)" d="m0 0 4 2 5 6-1 3-5-1v-5l-6 5h-1v-6z" fill="#8D95AD"/>
<path transform="translate(636,1118)" d="m0 0 4 1 6 10 5 12 3 4-1 2-7-10-8-15z" fill="#6E4849"/>
<path transform="translate(780,1111)" d="m0 0 4 2 6 9 2 4v4l-4-2-7-12z" fill="#121016"/>
<path transform="translate(783,1201)" d="m0 0 4 1 2 4 2 2h-5l1 5h-3l-3 3-4-1 1-3h2l1-4h2l1-5z" fill="#30313A"/>
<path transform="translate(784,1187)" d="m0 0h6l4 1v3l6 1v1h-16l-3-1v-4z" fill="#20232C"/>
<path transform="translate(1035,1358)" d="m0 0 4 1v2h2l2 2v7l-6-1-1-4-4-2v-3h3z" fill="#4E5A7B"/>
<path transform="translate(854,610)" d="m0 0h6v6l-2 5-4 1-3-8 3-1-4-1z" fill="#121016"/>
<path transform="translate(801,1076)" d="m0 0h1l-1 11-2 17-3-1v-7l2-18 2 2z" fill="#494958"/>
<path transform="translate(899,905)" d="m0 0h6l4 4-4 3-10-1 1-4z" fill="#111117"/>
<path transform="translate(981,854)" d="m0 0 3 1-2 6-7 11-4 2 2-6z" fill="#191C24"/>
<path transform="translate(969,640)" d="m0 0 2 3 2 12v6l-2 1-2-1v-5-3l-2-7v-4h2z" fill="#2A2D39"/>
<path transform="translate(1029,1389)" d="m0 0 2 3 4 11 1 15 1 2v6l-2-2-1-3-2-17-3-10z" fill="#5F6D90"/>
<path transform="translate(1019,1307)" d="m0 0 1 4h2l2 8v7h-2l-1 3-3-15z" fill="#4E4F5F"/>
<path transform="translate(960,805)" d="m0 0h6l2 5-1 4h-2l-1 3-3 1v-3z" fill="#191B23"/>
<path transform="translate(895,1369)" d="m0 0h1v17l-1 2h-3v-11l1-7z" fill="#2A2E38"/>
<path transform="translate(971,696)" d="m0 0 3 1-1 4-5 2-7 9-2-2 7-12z" fill="#AB7978"/>
<path transform="translate(1e3 1418)" d="m0 0 2 2 3 10v10h-2l-3-12z" fill="#4C597A"/>
<path transform="translate(812,1239)" d="m0 0h1l-1 26-3 13h-1l1-18z" fill="#3D434F"/>
<path transform="translate(961,626)" d="m0 0 5 4 3 9-4 1-1-3-3-2v-4l-2-1z" fill="#20222C"/>
<path transform="translate(879,1675)" d="m0 0h1l1 10v26h-1l-2-25v-8z" fill="#A97878"/>
<path transform="translate(831,1293)" d="m0 0 5 1 2 5v5l-5-5v-1l-8-1-3 2 2-4z" fill="#292D37"/>
<path transform="translate(848,767)" d="m0 0 4 1 1 3 2 1 1-2 2 6 1 5 4 1-4 1-6-7-5-6z" fill="#744D4D"/>
<path transform="translate(945,1635)" d="m0 0 8 2 3 1 2 4h-7l-6-2-2-4z" fill="#5F6D90"/>
<path transform="translate(819,1429)" d="m0 0 5 3 4 3h7l4 2-1 3h-4v-2l-6 1-3-2v-2l-3-1-3-3z" fill="#3D434F"/>
<path transform="translate(874,957)" d="m0 0h5l2 2-1 4-2 2-5-1-1-5z" fill="#FEFEFE"/>
<path transform="translate(940,659)" d="m0 0h3v4l6 1 9 1 2-2 3 4-1 2-6-1-7-1-7-3z" fill="#4A3A40"/>
<path transform="translate(843,1433)" d="m0 0 7 1 9 1 4 2 4 1-3 1-13-2-6-1-6 1z" fill="#3D434F"/>
<path transform="translate(978,989)" d="m0 0h1l1 9-2 8h-2v4h-2l1-11z" fill="#121016"/>
<path transform="translate(773,1212)" d="m0 0h2l-1 5-2 2h-11l-1-4h10z" fill="#B3B4C0"/>
<path transform="translate(1058,1186)" d="m0 0h1l-1 9 2 1-2 10-4 3v-7l2-5z" fill="#535B75"/>
<path transform="translate(930,702)" d="m0 0 4 1-7 4-5 6h-2v-2h-3l1-3 5-2h3v-2z" fill="#14151B"/>
<path transform="translate(860,1641)" d="m0 0h2v8l10-1-4 2-12 2z" fill="#2F333E"/>
<path transform="translate(1022,1584)" d="m0 0h3l-1 7-9 1v-4z" fill="#3D434F"/>
<path transform="translate(988,1477)" d="m0 0h5l-3 2-4 2h-3l2 4-4 4h-3l1-6 6-5z" fill="#4C5879"/>
<path transform="translate(1087,936)" d="m0 0 2 1v3h2v21h-1l-3-22z" fill="#575668"/>
<path transform="translate(984,1453)" d="m0 0 10 1 4 2h7l3 4-3 1-21-7z" fill="#3D434F"/>
<path transform="translate(781,1193)" d="m0 0h19l1 4-20-2z" fill="#69738F"/>
<path transform="translate(817,705)" d="m0 0h3l-2 5-1 7-1 3-4-6 1-6z" fill="#2F3343"/>
<path transform="translate(1043,1282)" d="m0 0h1v13l-1 3h-3l-1 5-1-3z" fill="#3D434F"/>
<path transform="translate(1007,1570)" d="m0 0 11 2 7 2v3l-3 1-5-3-8-2z" fill="#333843"/>
<path transform="translate(624,1032)" d="m0 0h3v5l-3 1v2l4 1h-7l-4-2 3-1 3-5z" fill="#2A2E38"/>
<path transform="translate(1e3 1473)" d="m0 0h5l2 3-1 2-5 2-5-1v-3l1-2z" fill="#3D434F"/>
<path transform="translate(828,1596)" d="m0 0 5 1 1 7-4 4-1-9h-6l1-2z" fill="#3D434F"/>
<path transform="translate(450,1079)" d="m0 0h3v12h-5l2-1v-3l-2-1z" fill="#050A47"/>
<path transform="translate(1e3 851)" d="m0 0 14 12-3 1-6-4v-2h-2v-2l-4-1z" fill="#474A58"/>
<path transform="translate(864,610)" d="m0 0h3l2 5-3 3-4-1-1-4z" fill="#121016"/>
<path transform="translate(923,593)" d="m0 0 5 1 10 5-3 2h-3l-4-1-5-6z" fill="#262935"/>
<path transform="translate(791,1661)" d="m0 0h28v1l-5 1-18 1-4 1z" fill="#1E2028"/>
<path transform="translate(1394,1043)" d="m0 0h1v30h-1l-1-20-2-1v-3l2-1z" fill="#050A48"/>
<path transform="translate(873,854)" d="m0 0h2l1 9-3 6h-1l-1-13z" fill="#16161D"/>
<path transform="translate(858,631)" d="m0 0h2v2l5-1-1 2-10 4-4-1 1-3h3v-2z" fill="#121016"/>
<path transform="translate(1027,1530)" d="m0 0h1v15h-1l-1-5-2 5-2-1 4-13z" fill="#424756"/>
<path transform="translate(1075,973)" d="m0 0 2 2 1 4 1 18-2 3-1-17-2-2v-7z" fill="#3D434F"/>
<path transform="translate(968,655)" d="m0 0 2 1-1 5 3 1-1 10-4-2 1-8z" fill="#22232D"/>
<path transform="translate(826,878)" d="m0 0 2 1-3 7h-3v2h-2l-2-5z" fill="#434958"/>
<path transform="translate(1038,1409)" d="m0 0h2l2 5v12l-2-1v-6h-2z" fill="#585F7B"/>
<path transform="translate(1030,1373)" d="m0 0 2 3 3 6 3 10-1 4-3-8v-3h-2l-2-6z" fill="#505162"/>
<path transform="translate(955,1474)" d="m0 0 10 2v4l-11-2z" fill="#4C597A"/>
<path transform="translate(1047,1267)" d="m0 0h1v10l-4 5v-9l2-5z" fill="#3D434F"/>
<path transform="translate(810,1242)" d="m0 0h2l-1 12h-2l-1 6h-1l1-11z" fill="#4D5671"/>
<path transform="translate(774,1216)" d="m0 0 1 4h2l1 3-1 2-2 13h-1v-10l1-4-1-4-2-1z" fill="#474B5A"/>
<path transform="translate(413,1066)" d="m0 0 2 2v17l-2 1-1-16z" fill="#050A48"/>
<path transform="translate(872,1433)" d="m0 0h9l1 4-5 1-5-2z" fill="#131319"/>
<path transform="translate(1027,1196)" d="m0 0 1 3-5 12h-2l1-7 3-6h2z" fill="#A5ABBD"/>
<path transform="translate(816,884)" d="m0 0 4 1-1 6-3 1-2-6zm-3 4v3l-3 2 2-4z" fill="#393E4B"/>
<path transform="translate(890,708)" d="m0 0 5 2-1 5-7-1v-4z" fill="#6D687E"/>
<path transform="translate(972,1450)" d="m0 0h10l2 3-6-1 1 3-6-1-3-2z" fill="#3D434F"/>
<path transform="translate(857,891)" d="m0 0 2 1-1 6-2 2h-3v-5z" fill="#1B1E26"/>
<path transform="translate(1039,870)" d="m0 0 8 8-1 2-9-5z" fill="#232129"/>
<path transform="translate(891,705)" d="m0 0 1 2h4v2h-6l-5 4-2-1 2-4z" fill="#1B1D24"/>
<path transform="translate(959,682)" d="m0 0h1v9h-4l-2-5 4-1z" fill="#1E1F27"/>
<path transform="translate(1050,1261)" d="m0 0h1l-1 19h-1l-1-5v-12z" fill="#546080"/>
<path transform="translate(781,1217)" d="m0 0 10 1 2 3-5 1-9-3z" fill="#514B58"/>
<path transform="translate(971,1496)" d="m0 0h5v2l3 1v4l-4-1-4-3z" fill="#4C597A"/>
<path transform="translate(1020,1211)" d="m0 0 1 3-5 9-3 3h-2l5-10h2z" fill="#989DAE"/>
<path transform="translate(737,1124)" d="m0 0h3l1 9 1 2-2 4-3-11z" fill="#6B535A"/>
<path transform="translate(1066,1102)" d="m0 0h1v14l-1 10-2-4v-7z" fill="#546284"/>
<path transform="translate(1039,876)" d="m0 0 5 2 3 2-1 2-1 3-8-6 3-1z" fill="#3C424E"/>
<path transform="translate(979,806)" d="m0 0 1 2v9l-5-5-1-5z" fill="#404755"/>
<path transform="translate(745,1383)" d="m0 0h1l1 11h-2l-1 5 2 3-4-2 2-11z" fill="#59617D"/>
<path transform="translate(803,1025)" d="m0 0h1v6l-3 3-2 4v-10h3z" fill="#515872"/>
<path transform="translate(1089,978)" d="m0 0 2 1-1 11-4-1 1-8z" fill="#3D434F"/>
<path transform="translate(899,696)" d="m0 0 7 1 1 2-3 3h-5l-1-5z" fill="#AB7978"/>
<path transform="translate(831,659)" d="m0 0h1l1 11-2 6-1-4-2-1h2v-7z" fill="#4B5066"/>
<path transform="translate(791,1198)" d="m0 0 4 2-4 4 1 3-4-1 1-5z" fill="#16181F"/>
<path transform="translate(749,1164)" d="m0 0 13 1 1 3-3 1-7-2v-2z" fill="#09090C"/>
<path transform="translate(1060,1163)" d="m0 0h1v8l-1 6h-2v-13z" fill="#3A3F4B"/>
<path transform="translate(636,1146)" d="m0 0 3 4 2 5-7-4-5-1 4-2h3z" fill="#514046"/>
<path transform="translate(794,1067)" d="m0 0 3 1v7l-6-3 1-4z" fill="#0C0B0F"/>
<path transform="translate(987,1674)" d="m0 0 6 1-1 2-5 1h-9l3-2z" fill="#5B698C"/>
<path transform="translate(1029,1425)" d="m0 0h2l3 7 1 7h-2l-3-6z" fill="#5C698B"/>
<path transform="translate(888,1386)" d="m0 0 2 1-1 11-2 4-1-4z" fill="#2A2E38"/>
<path transform="translate(768,1211)" d="m0 0h5l-2 4-1 1h-6l-1-2 2-2 2 1z" fill="#261F25"/>
<path transform="translate(631,1120)" d="m0 0 5 1-3 4-1 5-2-2-1-6z" fill="#FEFEFE"/>
<path transform="translate(859,709)" d="m0 0 2 1v9l-3 2-1-3 1-3h-2l-1-3h2z" fill="#131118"/>
<path transform="translate(848,692)" d="m0 0 7 1 5 2v1l-10 1v-3z" fill="#6A4A4E"/>
<path transform="translate(832,671)" d="m0 0h1v9l-1 6-2-1v-9z" fill="#FEFEFE"/>
<path transform="translate(595,1137)" d="m0 0 7 1 9 4-4 1-12-4z" fill="#FEFEFE"/>
<path transform="translate(647,1132)" d="m0 0 4 4 1 5 3 1 1 4-4-2-5-9z" fill="#15161D"/>
<path transform="translate(797,1211)" d="m0 0 2 4 1 4-3 1-1-2-3-1 2-3 1-1z" fill="#3C3C48"/>
<path transform="translate(799,1101)" d="m0 0h2v8l-4-2-2-5 4 2z" fill="#393E49"/>
<path transform="translate(841,692)" d="m0 0h7l3 3h-11l-1-2z" fill="#1A1A21"/>
<path transform="translate(978,989)" d="m0 0h1l1 9-2 7-1-3v-11z" fill="#15151C"/>
<path transform="translate(821,967)" d="m0 0h3v6l-4 4-1-5z" fill="#2C303A"/>
<path transform="translate(928,705)" d="m0 0h5l-2 4-5 2 1-5z" fill="#716C84"/>
<path transform="translate(559,585)" d="m0 0 2 1-11 11v-3l5-6z" fill="#232732"/>
<path transform="translate(846,1492)" d="m0 0 2 1 1 6-3 4-1-4z" fill="#3D434F"/>
<path transform="translate(777,1404)" d="m0 0h2l-1 8 4 1-9-1 4-1-2-4z" fill="#4C5166"/>
<path transform="translate(1051,1236)" d="m0 0h3l-1 12-1-4h-2z" fill="#535A75"/>
<path transform="translate(747,1153)" d="m0 0 4 1-1 5h-4v-5z" fill="#5B6684"/>
<path transform="translate(577,1131)" d="m0 0 10 1 3 1v2l-9-1-4-2z" fill="#7F5758"/>
<path transform="translate(945,905)" d="m0 0 2 2-4 5-5 1 6-7z" fill="#191C24"/>
</svg>
