<?xml version="1.0" encoding="UTF-8"?>
<svg version="1.1" viewBox="0 0 868 948" width="1280" height="1280" xmlns="http://www.w3.org/2000/svg">
<!-- <path transform="translate(0)" d="m0 0h868v948h-868z" fill="#FCFDFC"/> -->
<path transform="translate(402,136)" d="m0 0h13l19 2 10 3 16 9 8 7 8 11 8 16 1 6 11-1 2 1 3 11 2 3 4 18 2 14 1 19 1 20 3 1 1 3v7l-2 5v3l10-3h7l6 5 4 8 1 4v14l-2 12-7 14-15 15-7 4h-11l-2 8-4 22-1 18v23l2 15 8 4 6 5v2h2l6 9 5 14 4 11 6 8 5 5v2h2v2l6 2 23 10 24 10 36 12 35 10 11 7 19 10 7 6 10 23 4 8 3 8 14 41 6 22 6 27 5 34 7 30 8 26 2 5v7l-1 1v22l-9 6-13 7 1 20-1 3h-40l-23-1h-26l-5-9-5-5-5-10-3-7-1 31-13 1h-366l-10-1-1-6-2 1-1 5-20 1h-46l-18-1-4-4v-9l-11-3-12-5-3-4-3-23-2-4v-20l5-32 7-35v-9l-1-5v-11l3-32h2l1-11 2-14 8-29 6-18 3-11 4-5 12-9 33-22 23-7 36-10 27-10 33-13 8-7 6-20 7-14 5-6h2l1-4v-23l-3-24-11-44v-3l-15-1-12-6-9-10-5-10-1-3v-25l2-10 5-4 2-1h14l-1-4-2-1-1-17-2-17v-46l2-16 1-5 1-14 4-8 9-10 13-10 16-8 11-4 20-4z" fill="#262931"/>
<path transform="translate(390,76)" d="m0 0h42l30 3 28 5 26 7 25 9 26 12 23 12 19 12 18 13 13 11 8 7 12 11 10 10 7 8 12 14 13 18 10 15 14 25 10 21 10 26 8 26 6 27 4 29 1 14v39l-2 23-5 30-6 25-10 30-10 23-8 16-8 14-4 2-5-10-9-21-6-5-19-10-11-7-28-8-26-8-25-9-20-9-21-9-4-2v-2h-2l-7-8-6-9-6-18-7-14h-2l-5-5-6-4h-3l-2-6-1-11v-23l1-18 4-22 2-8 3-1h9l9-6 12-12 7-14 2-12v-14l-4-10-4-5-2-1h-7l-10 3-1-4 2-5v-7l-1-3-2-1-2-20-1-19-3-20-4-14-3-9v-3h-13l-6-15-6-10-9-11-14-9-8-4-15-3-12-1h-13l-21 3-15 4-18 8-11 8-10 9-6 9-1 3-1 14-2 9-1 12v46l3 26-1 8 3 1v4l-6 1h-8l-6 4-2 10v25l4 10 9 11 10 6 11 2 7 1 11 43 2 9 2 19v23l-2 4-5 5-6 10-5 14-3 11-9 8-49 19-21 7-40 11-11 4-14 10-24 16-6 5-3 6-4 15-7 21-6 23-3 21h-1l1-20-9-10-12-17-11-17-12-22-10-22-7-18-8-25-6-28-3-20-2-20-1-18v-16l2-29 4-27 5-23 8-27 8-21 9-20 11-21 11-18 12-17 11-14 9-10 7-8 22-22 8-7 14-11 18-13 24-14 21-11 19-8 25-9 20-6 24-5 29-4z" fill="#C461F8"/>
<path transform="translate(402,136)" d="m0 0h13l19 2 10 3 16 9 8 7 8 11 8 16 1 6 11-1 2 1 3 11 2 3 4 18 2 14 1 19 1 20 3 1 1 3v7l-2 5v3l10-3h7l6 5 4 8 1 4v14l-2 12-7 14-15 15-7 4h-11l-2 8-4 22-1 18v23l2 15 3 13 3 16 1 10v21l-2 9h-2l-2 10-9 21-4 7-3 7-4 5-3 7-1 2h-2l-2 4-3 4h-2v2l-3 2h-4l-2 4-7 7h-3l-2 5-6 10-3 6-2 5h-2l-6-8-6-5-4-5v-2l-4-2-7-8-10-10-8-12-4-7-5-9-8-15-3-7-6-12-1-7-3-1-2-8v-33l1-10 2-4v-23l-3-24-11-44v-3l-15-1-12-6-9-10-5-10-1-3v-25l2-10 5-4 2-1h14l-1-4-2-1-1-17-2-17v-46l2-16 1-5 1-14 4-8 9-10 13-10 16-8 11-4 20-4z" fill="#9D797A"/>
<path transform="translate(398,183)" d="m0 0h11l4 2 1 6h2v2l6 1 6 3 3 3 8 3 1 3 5 2 1 4h2l4 5v4l2 1 3 4v2l4 1v3l4 2 2 2 2 9v3l1 8-3-1-11-1-12-2-10-1v3h-2v3l10 1 9 1-5 5-9 2v2l-7 3-3 4-16 2-9 2-4 1-7-6-8-4h-6l10 3 5 4 4 6v19l-4 10-9 9-8 5-6 2h-13l-10-5-4-3 8 7 11 3h12v-2l11-6 9-9 4-6 2-6 1-20 6-1h9l4 2v23l2 1 6 12v4l10 5 3 3 1 4h-2v3h-17l-1 2-14 1-4-1-1-2-6 1-2 2h-3v3h12l-5 5-12 6-11 6h-2l-1-3-1 4-1 8 4 9v2h6l3 7 12 16v2l5 2 3 3 9 2h8l4 2v2h2l2 2h3v2l2 2-5 2-2 4-6 3-4 3h-9l-8 1-13 1-4 1-1 2-9-2-2-1 5 9 3 11 12 12v4h2l1 2 4 2 2 3h3v2l3 1 3 3v2h2v3l3 1v4l3-1v2h7l7 5 2 3v5h-2l-2 4-4 4-7 3-13-3-5-2 3 8 4 4v2l-6 2-3 7v15l-1 2 4 1 2 4 7 1 3 2 10 1 7 5 4 8v2l6-2 7-8 6-1 2 1v8l-2 10-1 10-5 5-8 11-6 12-2 5h-2l-6-8-6-5-4-5v-2l-4-2-7-8-10-10-8-12-4-7-5-9-8-15-3-7-6-12-1-7-3-1-2-8v-33l1-10 2-4v-23l-3-24-11-44v-3l-15-1-12-6-9-10-5-10-1-3v-25l2-10 5-4 2-1h14l-1-4-2-1-2-34 2-4h2l2-12 4-9 3-10 6-12 5-5 3-1 2-4 4-4 11-3h7l-1-3 5-2 1 1 2-4 8-4z" fill="#AA8B89"/>
<path transform="translate(402,136)" d="m0 0h13l19 2 10 3 16 9 8 7 8 11 8 16 1 6 11-1 2 1 3 11 2 3 4 18 2 14 1 19 1 20 3 1 1 3v7l-2 5v3l10-3h7l6 5 4 8 1 4v14l-2 12-7 14-15 15-7 4h-9l-2-1 2-37v-22l-1-26 9-3-1-2-7-1 2-4 2-1 1-4-3-3-2-9h-2l-4-6-4-1-2 13-2 2-6 1v-2h-2l2 5 7 4 2 4h8l1 1v7l-5 1-3-3v-2h-2l-6-7-7-5-7-2h-13l-6 2-10 1v2l-7 4-5 4-1 3v9l4-1 2-5 6-5 6-2h17l13 1 3 3v4l2 1 1 3-3 6-7 3-17 2-1-1h-7v-1l18-2v-2l-19-1v-2h-2l-1-4h-4l3 10-1 3h-4l-1 3-4-1 3 7 9 8 12 4h20l-1 2-7 2h-10l-11-2-8-6h-3l7 11 6 4 2 7-4 3-15 3-5-1-1 2h-16l-5-3-5-1v2h-8v-3l7-4 5 1v2h18l1-3 17 1 1-4-3-5-9-4-4-10-2-4v-3l-2-1-2-5v-17l1-2-4-1h-15v20l-4 9-9 10-8 6-6 2v2l-12 1-11-3-9-8 1-2 7 6 7 3h13l10-4 12-11 4-10v-19l-4-6-7-4-8-3v-1h7l8 4 7 6 4-1 9-2 16-2 5-5 5-1v-2l10-4 3-2-13-1-6-1 1-4h2v-3h10l12 2 11 1 3 2-3-9 1-3-3-9-4-3-1-3-3-1-1-4-3-1-3-7-2-4h-2l-1-4-5-2-2-3-9-3-1-3-12-4v-2h-2l-2-6-8-1-11 1-11 2-8 4-2 4h-3l-2 1v2l-9 1-10 4-5 6-7 6-4 8-3 8-4 10-3 8-2 9h-2v5l-3-1v-46l2-16 1-5 1-14 4-8 9-10 13-10 16-8 11-4 20-4z" fill="#725C5D"/>
<path transform="translate(398,183)" d="m0 0h11l4 2 1 6h2v2l6 1 6 3 3 3 8 3 1 3 5 2 1 4h2l4 5v4l2 1 3 4v2l4 1v3l4 2 2 2 2 9v3l1 8-3-1-11-1-12-2-10-1v3h-2v3l10 1 9 1-5 5-9 2v2l-7 3-3 4-16 2-9 2-4 1-7-6-8-4h-6l10 3 5 4 4 6v19l-4 10-9 9-8 5-6 2h-13l-10-5-5-4-4-4-4-9-3-6v-3l20-4v-11l2-11-9 3-5 5-6 12v5l-8-1-1-3h-4l-2-13-1-17 2-4h2l2-12 4-9 3-10 6-12 5-5 3-1 2-4 4-4 11-3h7l-1-3 5-2 1 1 2-4 8-4z" fill="#9D797A"/>
<path transform="translate(491,247)" d="m0 0 5 1 3 4v2h2l4 10 2 3-2 4-4 4h7l1 3-4 3h-5l1 3 1 23v22l-2 32-4 20-3 16-1 18v23l2 15 3 13 3 16 1 10v21l-2 9h-2l-2 10-9 21-1-3 3-9 6-13 2-10h-1l-2-13-1-4-2-13-1-3h-2l-1-7-6-4-9-4-6 2-3 2-2 6h-2v2h-2v3h-2l-1 5-4 1v-7l-1-3v-5h-5l-3-4v-5l-1-4-5-2-20-2-1-1-16-2v-2l-9-1-3-2v-2l-5-2-5-5v-2h24l22-4 13-4h2v-2l5-3 3-4 2-7h2l2-5 3-6 5-7 2-1 5-9 4-10 3-12 1-15 3-3v-4l2-1 1-9-2-6-1-2-6-1h-8v-1l11-3h-18l-12-4-10-9-2-7h4l1-2 3-2v-3l-1-8h4l1 4h2v2h14l5 1v2l-10 2 3 1 14-2 7-3 2-6-3-5v-3l-7-1-12-1h-13l-9 4-3 3-2 5h-4l-1-2v-7l3-5 8-6h3v-2l16-4h13l8 3 7 5v2l4 2 1 3h2l3 4h5l-1-7h-8l-3-4-3-2-5-4v-4h2v2l7-3 2-10z" fill="#7E6768"/>
<path transform="translate(402,136)" d="m0 0h13l19 2 10 3 16 9 8 7 8 11 8 16 1 6 11-1 2 1 3 11 2 3 4 18 2 14-1 13h-2v-2h-3l-2-6h-2l-4-5-6-5-4-11-2-7-4-10-7-10-6-3h-8l-7-2-5-2-11-4-9-1-5-2h-17l-18 4-22 10-11 6-9 8-6 7-4 4-5 13-4 10-3 8-2 9h-2v5l-3-1v-46l2-16 1-5 1-14 4-8 9-10 13-10 16-8 11-4 20-4z" fill="#272931"/>
<path transform="translate(357,430)" d="m0 0h2v3h2l3 5 3 1v-5l5 1-2 1 5 9 3 11 12 12v4h2l1 2 4 2 2 3h3v2l3 1 3 3v2h2v3l3 1v4l3-1v2h7l7 5 2 3v5h-2l-2 4-4 4-7 3-13-3-5-2 3 8 4 4v2l-6 2-3 7v15l-1 2 4 1 2 4 7 1 3 2 10 1 7 5 4 8v2l6-2 7-8 6-1 2 1v8l-2 10-1 10-5 5-8 11-6 12-2 5h-2l-6-8-6-5-4-5v-2l-4-2-7-8-10-10-8-12-4-7-5-9-8-15-3-7-6-12-1-7-3-1-2-8v-33l1-10 2-4 1-27z" fill="#AB8C8A"/>
<path transform="translate(488,351)" d="m0 0h1v18l-1 2v15h-2v9l-3 7 2 1h-2v5h-2l-1 9-6 8h-2v3l-3 3-1 2 9-1 6-7 3-7 4-9h2v29l2 15 3 13 3 16 1 10v21l-2 9h-2l-2 10-9 21-1-3 3-9 6-13 2-10h-1l-2-13-1-4-2-13-1-3h-2l-1-7-6-4-9-4-6 2-3 2-2 6h-2v2h-2v3h-2l-1 5-4 1v-7l-1-3v-5h-5l-3-4v-5l-1-4-5-2-20-2-1-1-16-2v-2l-5-1v-2l-5-1-1-3h2l1-3 33-4 11-3 4-3 8-3 7-9 5-11h2v-5l2-2 4-11 6-13 2-7h2l3-11 3-1 6-9z" fill="#735D5E"/>
<path transform="translate(440,323)" d="m0 0 8 6 3 4 1 7-2 3-12 3-1 2 10 3 6 2 1 2 3-1 5 3v8l-6 12-1 14-4 10 1 4-1-2h-2l-2 4-2 2-11 1-1-3-16 2-6-2-11-7-9-7-6-7-5-7-1 1h-5l-4-9-1-6 3-8 2 1-1 2 12-6 9-5 7-4 1-1-3-1v-2h5l6 3h14l4-2 6 1 5-2 9-2 1-2-1-6-4-2-4-4z" fill="#8B6869"/>
<path transform="translate(405,457)" d="m0 0h8l1 1 20 2 5 3v3l2 1v5l2 3 5 1 1 7 1 3-1 5 4-2 1-4h2v-3h2v-2h2l1-6 8-5 10 3 5 4 3 2v7h2l2 3 2 16 1 4 2 9 1 2-3 11-6 12-4 14-4 9-5 7-3 7-1 2h-2l-2 4-3 4h-2v2l-3 2h-4l-2 4-5 5-4 2 4-6 4-3 1-7 4-16 2-4v-6l2-2 3-12 3-1 1-8 3-5 3-7h2l1-5 4-8-2-17-1-3-3-1v-2h-5l-1 5-3 3h-2v2h-2l-2 9-2 4-3 7-1 7-1 9-3 11v4h-2v2l-7 3-4-2-4-6-1-8 2-3v-7l-1-3-4-2h-7l-4-3 8-4h2v-2l3-1 3-4h3l1-4 2-4v-7h-4l-5-5v-2l-5-1v-2l-3-1 1-10 5-6v-6l-2-2-14-2-8-2z" fill="#7D6566"/>
<path transform="translate(398,183)" d="m0 0h11l4 2 1 6h2v2l6 1 6 3 3 3 8 3 1 3 5 2 1 4h2l4 5v4l2 1 3 4v2l4 1v3l4 2 2 2 2 9v3l1 8-3-1-11-1-12-2-10-1v-1l7-1h8v-3h-2l-2-5-4-1 1-3-4-1-3-5h-2l-1-6h-2v-2l-5-1v-2l-5-2-8-7-6-2-7-3-10 1-6 3-9 3-2 5-5 6-2 1-3 5-2 4-5 5-4 6-4 7v2l-5 2v-2l-4 1-3-1v-2l-5 2-1-1-1 2h-2v2h-2l-3 12v19h-3l-2-19v-7l2-4h2l2-12 4-9 3-10 6-12 5-5 3-1 2-4 4-4 11-3h7l-1-3 5-2 1 1 2-4 8-4z" fill="#725C5D"/>
<path transform="translate(511,275)" d="m0 0 3 1 1 3v7l-2 5v3l10-3h7l6 5 4 8 1 4v14l-2 12-7 14-15 15-7 4h-9l-2-1 2-37v-22l-1-26 6-2 5-2z" fill="#5E414A"/>
<path transform="translate(456,263)" d="m0 0h13l8 3 7 5v2l4 2 1 3h2l3 4h4v2l-7-1 1 10 3 10 1 4-1 3 1 9 1 7-2 6-6 12v-6l-1-3h-2v-3h-2l-1-9-1-4-6 1v2l-3-1h-18l-12-4-10-9-2-7h4l1-2 3-2v-3l-1-8h4l1 4h2v2h14l5 1v2l-10 2 3 1 14-2 7-3 2-6-3-5v-3l-7-1-12-1h-13l-9 4-3 3-2 5h-4l-1-2v-7l3-5 8-6h3v-2z" fill="#725C5D"/>
<path transform="translate(434,315)" d="m0 0 5 1 7 5 16 3h10l5 2v2l2 1 1 8-2 7-2 6-2 1-1 15-4 15-4 9-5 8h-2l-2 5-3 3-5 10h-2l-1 7-6 7h-3v2l-18 6-11 1-9 2h-18l1-5 18-2 14-1 5-1 3-3 5-1 2-5 4-1-2-2 1-2-4 1-1-3h-2v-2l-6-1h-6l-9-2-3-2v-2l-5-2-7-10-6-8-3-7 1-2 10 13 7 6 14 9 6 2 16-1 2 2 10-1 4-5 2-1-1-2 4-9 1-14 6-12 1-8-15-5-10-4 1-3 12-3 1-5-3-7-10-8z" fill="#9D797A"/>
<path transform="translate(404,178)" d="m0 0h17l5 2 12 2 10 4 6 2 7 1 8 1 6 5 8 14 2 5 3 12 1 5 4 2 6 6v2h2l2 3v3h3v2h2v6l-3-1v-2h-2l-2-4-2-1v-2l-5-1v-2h-4l-4 5-7 2v-2l-2-1-4-5-6-9-1-7h-4l-2-6-4-2v-2l-4-2-3-5-6-7-8-5-10-5-5-1v-2l-3-1v-2l-3-1v-2h-16v2l-16 3-8 4-2 4h-3l-2 1v2l-9 1-7 2 5-5 14-7 19-8z" fill="#61424B"/>
<path transform="translate(383,195)" d="m0 0 20 2 1-2 5 2 6 1v2l5 2 11 6 8 4 1 5 4 1 6 10 2 5 1 4 4 2 4 9v4h-17l-10-1v-1l7-1h8v-3h-2l-2-5-4-1 1-3-4-1-3-5h-2l-1-6h-2v-2l-5-1v-2l-5-2-8-7-6-2-7-3-10 1-6 3-9 3-2 5-5 6-2 1-3 5-2 4-5 5-4 6-4 7v2l-5 2v-2l-4 1-3-1v-2l-5 2-1-1-1 2h-2v2h-2l-3 12v19h-3l1-25 1-3h2l1-4 8-9 4-8 2-8h4l1-5 5 2v2l3-1 3-5 2-2 4-5h2l2-5 10-10 4-1 1-3z" fill="#8C6869"/>
<path transform="translate(467,479)" d="m0 0 11 1 3 5 4 6 1 9 2 8 2 14 1 4-4 8-3 7h-2l-1 4-5 5h-2l-1 5-8 6-4 11-2 2-3 13-3 4 2-13 4-10v-6l2-2 3-12 3-1 1-8 3-5 3-7h2l1-5 4-8-2-17-1-3-3-1v-2h-5l-1 5-3 3h-2v2h-2l-2 9-2 4-3 7-1 7-1 9-3 11v4h-2v2l-7 3-4-2-4-6-1-8 2-3v-7l-1-3-4-2h-7l-4-3 8-4h2v-2l3-1 3-4 3 1h-2l-2 7 9-1h2v-2h3v-2l2-2 2-5v-3l1-4 3-8 2-4h2l1-3h2v-2h3z" fill="#8A7272"/>
<path transform="translate(453,430)" d="m0 0 7 2-1 5 9 1 6 2 3 2v2h2l2 6h5 3l-1 3-3 2h-3l-1 4-3 2h-7-2l-7 5h-2v2l-3-1-3 1-7-3-4-3v-2l-30-2-12-2-8-4 1-5 11-2 4-1 15-2 1-1 9-2 11-6z" fill="#625053"/>
<path transform="translate(318,292)" d="m0 0h5l4 14v15l1 8-2-2-4 2-1 4-7 14 4 2v2l3 1h14l2 7 2 6v5l-6 1-11-2-10-6-8-9-5-10-1-3v-25l2-10 5-4 2-1h14l-1-4-2-1z" fill="#9A7678"/>
<path transform="translate(404,181)" d="m0 0h7l3 1 4 5 2 1v2l7 1 8 4 5 3 6 5 4 5 4 6 6 5 2 6h4l4 10 4 6v2l4 2 1 4 8-4 3-4 4 1v2l5 1v2l4 2v3h2l3 3v-13h1l2 26v9l-10-2 2-4 2-1 1-4-3-3-2-9h-2l-4-6-4-1-2 13-2 2-6 1v-2h-2l2 5 7 4 2 4h8l1 1v7l-5 1-3-3v-2h-2l-6-7-7-5-7-2h-13l-6 2-10 1v2l-7 4-5 4-3 9-2-4v-3h-17l3-2 2-1 16-2 5-5 5-1v-2l10-4 3-2-13-1-6-1 1-4h2v-3h10l12 2 11 1 3 2-3-9 1-3-3-9-4-3-1-3-3-1-1-4-3-1-3-7-2-4h-2l-1-4-5-2-2-3-9-3-1-3-12-4v-2h-2l-2-6-8-1-6-1v-1z" fill="#625053"/>
<path transform="translate(386,221)" d="m0 0h5l7 3h5l8 6v2l3 1v2h2l1 4 5 2v3l4 1 2 5-8 3-4 3-3 5-5 2-1 3-4 1-7-5v-2h-2v-3l-5-1-2-1h-12l-11 1 2-4v-2l3-2 1-4h2l1-4 4-9 1-4 6-5z" fill="#B68E95"/>
<path transform="translate(440,323)" d="m0 0 8 6 3 4 1 7-2 3-12 3-1 2 10 3 6 2 1 2 3-1 5 3v8l-5 10-2-4-9-8-4-1h-24l-26 1-5 2-7 8-1 7h-5l-4-9-1-6 3-8 2 1-1 2 12-6 9-5 7-4 1-1-3-1v-2h5l6 3h14l4-2 6 1 5-2 9-2 1-2-1-6-4-2-4-4z" fill="#9D797A"/>
<path transform="translate(351,479)" d="m0 0h1l2 15 2 4h2l3 12 1 3v9l-1 3 4 11 7 12 2 1 1 3 3 2v2h3v2l4 1 2 4v3h2l5 14 5 6 7 6 11 2 4 5 5 7 8 4 1 4h2l-2 5-3 6-2 5h-2l-6-8-6-5-4-5v-2l-4-2-7-8-10-10-8-12-4-7-5-9-8-15-3-7-6-12-1-7-3-1-2-8z" fill="#9B7879"/>
<path transform="translate(330,326)" d="m0 0h2l2 6 3 5 3 10 1 4 2 1v7h2l4 10 8 16 3 5v9h3l2 8-3 1-2 1 2 7 5 4v2h2l7 8 2 5h-7l-4-1v5l-4-1-2-5h-2v-3h-2l-2 12h-1l-3-24-11-44v-3l-2-1-1-8-3-15-3-7z" fill="#AD9696"/>
<path transform="translate(395,283)" d="m0 0h1v19l-4 10-9 9-8 5-6 2h-13l-10-5-5-4-4-4-4-9-3-6v-3l10-1 3 8 1 4 6-3h6l1-2 4 2 3-1 14 1 5-1v2l7-2 2-5z" fill="#9D797A"/>
<path transform="translate(406,280)" d="m0 0h9l4 2v23l2 1 6 12v4l10 5 3 3 1 4h-2v3h-17l-1 2-14 1-4-1-1-2-4-2 4-1 5 1 10-4-1-2-3-1-1-7v-7l-4-1-1-4-4-1-3 2-2 2-4 1 2-5 3-7 1-20z" fill="#9D797A"/>
<path transform="translate(438,286)" d="m0 0h4l1 4h2v2h14l5 1v2l-10 2 3 2 20-2 5 2h2l2 6-3 7-8 8-2 1h-18l-12-4-10-9-2-7h4l1-2 3-2v-3z" fill="#8B6768"/>
<path transform="translate(393,190)" d="m0 0 17 3v3h3v2l-5-1-4-1-1 1h-14l-6-1-5 3-1 2-5 3h-2l-2 5-5 4-2 4-5 5-1 2h-2l-2 5-4 1v-2l-4-1-2 4h-4l-1 8-4 8-5 5-4 5-1 3h-2l-1 19h-2l-1-17 2-4h2l2-12 4-9 3-10 5-10 11-7 5-2 1-4h2l1-2 2 1v-2l8-1 5 1 1-3 4-3h6l5-2h4v-2z" fill="#7C6566"/>
<path transform="translate(445,276)" d="m0 0h17l13 1 3 3v4l2 1 1 3-3 6-7 3-17 2-1-1h-7v-1l18-2v-2l-19-1v-2h-2l-1-4h-4l3 10-1 3h-4l-1 3-4-1 3 7 9 8 12 4h20l-1 2-7 2h-10l-11-2-12-9-6-6-1-10-1-5h-2v-5h3v2l4-1 2-5 6-5z" fill="#614B50"/>
<path transform="translate(404,178)" d="m0 0h17l5 2 12 2 10 4 6 2 7 1 8 1 6 5 8 14 2 5 3 12 1 5 4 2 6 6v2h2l2 3v3h3v2h2v6l-3-1v-2h-2l-2-4-2-1v-2h-2l-5-7-4-1-3-5-3-3-1-6h-2l-1 2-4-8-4-2-5-5-1-4h-2v-2l-4-2-7-4-1-2-6-2v-2l-6-2v-2l-11-2-10-5h-16l-16 4-4-1 12-4z" fill="#483A41"/>
<path transform="translate(373,281)" d="m0 0h12l6 3 2 5v10l-3 6-7 1-1-1-8 1-11-1-3 1-3-2-8 3-5 1-3-5-1-7 7-3h3l2-4 7-3 2-2 11-1 2 4z" fill="#8C6A6B"/>
<path transform="translate(402,307)" d="m0 0 5 2 2 4 3 1 1 9 1 2-1 3 4 1v3l-10 4-9-1v2l-4 3h-3v3h9v1h-10l-2-1v-2l-9 2-5 7-6 4-3-1 2-1 1-8 6-12 2-3-3-1 11-6 7-7 8-5z" fill="#9D7A7B"/>
<path transform="translate(155,599)" d="m0 0h1l-1 8h2l1 6-4 16-4 18-4 20-4 34-2 14-2 12-3 13-2 5-1 7h-2l1-9 2-11v-9l-1-5v-11l3-32h2l1-11 2-14 8-29 6-18z" fill="#2E2D35"/>
<path transform="translate(738,849)" d="m0 0h2l1 4 1 16-1 3h-40l-23-1h-26l-2-4h2l1-3 4-1 51-1 14-2 10-7 5-3z" fill="#61434B"/>
<path transform="translate(528,292)" d="m0 0 5 1 4 5 4 10v14l-2 12-7 14-15 15-7 4h-9l-2-1 1-17 1-4 9-1v-2h3v-2l5-1 2-5h-3l-2-5-4-4-1-6 5 1 5 5 2 3v3l5-3 1 5-3 7-3 5-8 7-3 3h-2l-2 6-1 2 4 1 5-2v-2h2l-3-5v-2h2v-2l9-6 4-4 3-7 2-7v-6h2l-1-14-3-7-4-6z" fill="#60424B"/>
<path transform="translate(410,365)" d="m0 0 3 2 2 3 2-2 6 1h3l3-1 3 1 1 12-1 4-6 3-3 2h-12l-5-2-15-1-4-3-1-3v-7l3-5 16-2z" fill="#B68E95"/>
<path transform="translate(523,291)" d="m0 0h7l-2 1 7 11 1 4v14h-2l1 6-2 7-4 8-5 5-6 4h-2v2h-2l3 5v2h-2v2l-4 1-1 2-4-2 2-6 5-5 5-4 2-3h2l2-5 3-7 1-8-1 2h-3l-2-5-5-1-9-9v-2l8-4v-4l2-9z" fill="#625053"/>
<path transform="translate(362,478)" d="m0 0 1 2 7 2 5 5 5 7 2 7h2l4 13v20h-3l-10-5-10-20-1-14-3-6v-10z" fill="#AE9697"/>
<path transform="translate(471,322)" d="m0 0h9l3 10-1 9-1 5-3 12-2 1-5 23-5 11-4 11-2 2-1 5h-2l-3 9-4 6-5 6-9 4-5 3-15 3-27 3-2 5 5 1v2l-6-1-1-3-5-2-5-5v-2h24l22-4 13-4h2v-2l5-3 3-4 2-7h2l2-5 3-6 5-7 2-1 5-9 4-10 3-12 1-15 3-3v-4l2-1 1-9-2-6-1-2-6-1h-8v-1z" fill="#8B6A6B"/>
<path transform="translate(312,301)" d="m0 0h3l5 12 3-1 1 7-1 3h-2l-1 5-7 16-3-1v-3l-3-1 2 5 3 6 1 3 12 2 7 1 3 2v2h-2v2l-7-1-13-4-6-7-1-7h-2l-1-7 4-6-4 1-1-3-3-1v-8l3-8 2-4h2v-2z" fill="#A88887"/>
<path transform="translate(328,315)" d="m0 0 7 7v3 5l3 1 4 4 2 5v4l3 1 3 8 1 7-3 4h2l2 4 2 1v4h-2l1 4h5l3 12 3 3-2 7h-2l-2-10-10-19-2-7-1-4h-2l-1-7-3-5-1-7-2-1 1-2-2-1-3-5v-5l-1 5 2 12 2 4v5l-15 1v-2h-2l-4-4 1-5 5-9 2-4 5-3-1-9h2z" fill="#B48D93"/>
<path transform="translate(418,361)" d="m0 0h24l7 3 7 7-1 5-8 16-3-1 1-5-1-8-1-2h-2l-2-9-12 2-3 2-3-2-5 1h-3l-2-4-6 2-16 1-2 5-1 11-5-4-2-3 1-7 8-8 4-1z" fill="#61444C"/>
<path transform="translate(351,267)" d="m0 0h28l8 2 1 2-11-1 10 3 5 4 3 5-1 10-2-3-2-5-5-2-12-1 2 4-1 3-2-2v-3l-5 1-7 2-5 3-4 1-1-1v-7l2-11-9 2 4-4z" fill="#9C787B"/>
<path transform="translate(447,439)" d="m0 0 5 1 7 4v6l-10 5-9 2h-26l-10-2v-2l4-3h5v-2l21-5 9-3z" fill="#473940"/>
<path transform="translate(392,413)" d="m0 0h18l6 2 1 3 3 3 1 5-5 5-4 1h-10l-7-2-7-1v-2h-8l-3-3-3-8 3-1 8 4 5-1z" fill="#B68E95"/>
<path transform="translate(440,323)" d="m0 0 8 6 3 4 1 7-2 3-12 3-1 2 10 3 6 2 1 2 3-1 5 3v8l-5 10-2-4-9-8-4-1h-44v-1l18-1 9-3h10l8 2-2-5-12-3v-2h-7l-10-3v-1l12-1 4-2 6 1 5-2 9-2 1-2-1-6-4-2-4-4z" fill="#8A6969"/>
<path transform="translate(386,221)" d="m0 0h5l7 3h5l8 6v2l3 1v2h2l1 4 5 2v3l4 1 2 5-8 3h-3l2-4-3-5-1-2-5-2v-2l-9-3-4-4v-2h-2l-1-2-5 1-4 1 3 6-5 2h-3v4h-2l-1 6-3 2-1 4h6l-4 2-11 1 2-4v-2l3-2 1-4h2l1-4 4-9 1-4 6-5z" fill="#AB8C8A"/>
<path transform="translate(366,545)" d="m0 0 3 3 5 9 4 2 3 6 4 4 14 22 7 8 8 5 3 3 8 4 5 5 2 7-2 7h-2l-6-8-6-5-4-5v-2l-4-2-7-8-10-10-8-12-4-7-5-9-8-15z" fill="#896869"/>
<path transform="translate(435,368)" d="m0 0h4l1 3v13l-3 2-4 10-11 5-12 1-9-3v-2l-4-2-4-6 5 1v-2h-7v-1h15l5 2h12l7-4h2l1-5h2l-1-11z" fill="#9F7B7C"/>
<path transform="translate(499,342)" d="m0 0h1v19l-4 20-3 16-1 12h-2l-1 6-4 6-3 7-5 5h-9l2-5h2v-3l5-5 8-12 5-19 1-14 3-12 1-8 2-6z" fill="#927777"/>
<path transform="translate(405,457)" d="m0 0h8l1 1 16 2 4 2 1 7 1 5h-2l4 5 2 1v3h2l1 9-1 2 3 1 1 2v8l-5 1v3h-2v3h-2l1-4 2-4v-7h-4l-5-5v-2l-5-1v-2l-3-1 1-10 5-6v-6l-2-2-14-2-8-2z" fill="#8B6869"/>
<path transform="translate(456,263)" d="m0 0h13l6 2 2 5-5-1-6 1-3 3-3 1-1 1-13 1-10 5-3 3-2 5h-4l-1-2v-7l3-5 8-6h3v-2z" fill="#8B6A6B"/>
<path transform="translate(406,280)" d="m0 0h9l4 2v23l2 1 6 12v4l10 5 3 3 1 4h-2v3h-17l-1 2-4-1v-3h2l1-3 3-2-2-10-2-6-3-10-3-7 1-16-7 1-3 1-1 8-1 4 1 2-3 4v-20z" fill="#896768"/>
<path transform="translate(488,290)" d="m0 0 2 1 3 8 3 7-1 4 1 9 1 7-2 6-6 12v-6l-1-3h-2v-3h-2l-1-9-1-4-6 1v2l-2-1 7-8 6-9z" fill="#725C5D"/>
<path transform="translate(402,307)" d="m0 0 5 2 2 4 3 1 1 9 1 2-1 3 4 1v3l-10 4-9-1v2l-3 2-6-1-2-3h2l1-5 6-1 2-3v-10h-3l1-4z" fill="#AB8C8A"/>
<path transform="translate(126,767)" d="m0 0h1v12l-1 1-4 27h2l2-4 2-18 2-4 1 2v34l3 21-2 6-3 1-1 4-2-3-3-23-2-4v-20z" fill="#635154"/>
<path transform="translate(491,247)" d="m0 0 5 1 3 4v2h2l4 10 2 3-2 4-4 4h7l1 3-3 1v-2l-7 1-2-3h-7l-3-4-3-2-5-4v-4h2v2l7-3 2-10z" fill="#755F60"/>
<path transform="translate(740,853)" d="m0 0h1l1 16-1 3h-40l-23-1h-26l-1-2h7v-2l10-2h24l14 3h12l19-1 2-10z" fill="#95787A"/>
<path transform="translate(449,435)" d="m0 0 5 1 3 3 8 4v2l3-1 3 5-2 4h-2v2l-4 4-9 1-12-2-2-2 11-3 7-3 1-6-4-2-5-2-12 2-8 3-13 3h-4v2l-9 3v2l-6-1 1-4h3v-2l26-5 8-3z" fill="#61424B"/>
<path transform="translate(146,653)" d="m0 0h1l-1 14-4 34-2 14-2 12-3 13-2 5-1 7h-2l1-9 2-11v-9l-1-5v-11l3-32h1v22l2-3 4-22 2-10z" fill="#675558"/>
<path transform="translate(530,725)" d="m0 0 4 1v2h3l-1-3 4 1 3 4 5-1 4-1 1-3 5 1v8l-6 4-1 6h3v2h2v5l-5 1-1-3 1-4h-3l-1 3h-2l-1-2-6 1v2h-2v2h-5l-1-1v-5l1 2h5l3-5-2-1-1-8h-3l-3-4z" fill="#B3A1A2"/>
<path transform="translate(444,305)" d="m0 0 9 3h2l2-2h5 3l2 1 1 4 7 2v5l-5 2-5 1h-10l-12-4-5-4-1-6h3 4z" fill="#9D797A"/>
<path transform="translate(445,276)" d="m0 0h17l13 1 3 3v4l2 1 1 3-3 6-7 3-17 2-1-1h-7v-1l18-2v-2l-19-1v-2h-2l1-2 3 2 12 1 1-7 4 1v4l3 1v-6l-5-2-1-3-10-1h-9z" fill="#625053"/>
<path transform="translate(330,326)" d="m0 0h2l2 6 3 5 3 10 1 4 2 1v11l1 4 4 24 7 23 1 2h-2l-1 5-2-3-11-44v-3l-2-1-1-8-3-15-3-7z" fill="#BE9AA2"/>
<path transform="translate(467,479)" d="m0 0 11 1 3 5 4 6v6h-1l-1-5-3-1-3-6-1-1-7 1-1 3-4 1-3 12-4-1v5l-2 7h-2l-1 4-5 7-1 3-4-1-2-2h-8l-3 1-3-3h2v-4l3-1 3-4 3 1h-2l-2 7 9-1h2v-2h3v-2l2-2 2-5v-3l1-4 3-8 2-4h2l1-3h2v-2h3z" fill="#8C6869"/>
<path transform="translate(325,261)" d="m0 0h2l3 4 1 7 6 4 1 3-6 12v5l-8-1-1-3h-4l1-6 2-19z" fill="#AE8F92"/>
<path transform="translate(398,458)" d="m0 0 9 1 7 4 7 2v2l4 1-1 5-7 7h-6v-3l-6-1v-2h-3l-1-4-4-2 1-6-1-3z" fill="#AB8C8A"/>
<path transform="translate(149,856)" d="m0 0 5 1 9 3 3 5 12 2h34l8 2 10 1v1l-10 1h-46l-18-1-4-4v-9z" fill="#8A696A"/>
<path transform="translate(351,329)" d="m0 0 15 1 10-1-2 5-5 10h-2l-2 4-5 5-2 1-1-2v-7l-4-2-3-9z" fill="#B58D94"/>
<path transform="translate(373,281)" d="m0 0h12l6 3 1 2v8l-4 5-7 4h-5l-1-3 9-4 1-1 1-9h-2l-1 8-1 1h-10l-4-1-2-6-3-1-1 3-1-3 6-4h5l2 4z" fill="#312F37"/>
<path transform="translate(502,308)" d="m0 0h1v5h2v9l4-1 2 1 3 5 3 3v4h3l-1 5-1 1h-5v2h-3v2l-9 1v-16z" fill="#60434B"/>
<path transform="translate(438,326)" d="m0 0 4 1 6 4 2 7-4 3-15 3-5-1-1 2h-16l-5-3-5-1v2h-8v-3l7-4 5 1v2h18l1-3h8l10 1h5l-2-8-4-1z" fill="#60494F"/>
<path transform="translate(432,251)" d="m0 0h2v3h-2v3l10 1 9 1-5 5-9 2v2l-7 3-3 4-9 1 2-3-4-5 6-7 5-5z" fill="#8C6869"/>
<path transform="translate(318,292)" d="m0 0h5l4 14v15l1 8-2-2-4 2-1 4-7 14 4 2v3h-5l-4-6-3-6 1-3 3 2 1 3 2 1 1-5 7-16h2v-10h-2l-1 2-5-10 1-3h5l-1-4-2-1z" fill="#9A7778"/>
<path transform="translate(321,319)" d="m0 0 1 3-9 21-3-1v-3l-3-1 2 5 3 6 1 3 12 2 7 1 3 2v2h-2v2l-7-1-13-4-6-7-1-7h-2l-1-7 9-10 6-3h2z" fill="#BE9AA2"/>
<path transform="translate(347,271)" d="m0 0h5l-1 11-2 8-3 3-10 3h-4l-1-5 6-12 3-3h2l1-3z" fill="#FBFBFC"/>
<path transform="translate(451,277)" d="m0 0 10 2 2 3 5 2-1 6-4-1v-4l-3-1-1 7h-12l-4-3 1-3h6l-4-1h-9v6l-3 4v-2h-2v-8l7-6z" fill="#292A32"/>
<path transform="translate(376,269)" d="m0 0h7l8 4 7 6 2 4v18l-4 9-9 10-8 6-6 2v2l-12 1-11-3-9-8 1-2 7 6 7 3h13l10-4 12-11 4-10v-19l-4-6-7-4-8-3z" fill="#56454A"/>
<path transform="translate(420,371)" d="m0 0 3 2 1 12h-10l-2 1h-20l-2-4 3-1 3-3 6-1 3 1 2-5 5-1 3 6 2 1v-7z" fill="#FDFEFD"/>
<path transform="translate(434,251)" d="m0 0h10v1l-7 2 1 1h20l10 4v1l-13 1-3 1h9v1l-11 3-10 1v2l-7 4-5 4-3 9-2-4v-3h-17l3-2 2-1 16-2 5-5 5-1v-2l10-4 3-2-13-1-6-1 1-4h2z" fill="#6E5A5C"/>
<path transform="translate(485,502)" d="m0 0h2l2 12 1 10v3l-5 13-3 1-1 4-5 5h-2l2-10 3-14 3-4 2-9 1-5z" fill="#8C6869"/>
<path transform="translate(351,479)" d="m0 0h1l2 15 2 4h2l3 12 1 3v9l-1 3 1 8-1 3-4-8-1-7-3-1-2-8z" fill="#927173"/>
<path transform="translate(405,497)" d="m0 0 5 1 10 5 1 1v5l-3 6-9 1-7-4-1-7 1-5 3-2z" fill="#AD9696"/>
<path transform="translate(446,583)" d="m0 0h4v8l-1 7-8 10h-2v-3h-9l-1-5h2l2-4h2l1-3 5-5z" fill="#BE9AA2"/>
<path transform="translate(386,313)" d="m0 0 2 1-3 5-8 6-8 3h-13l-10-5-2-2v-3h3v2h5l2-1 1-3 4 4 7 2 6-3 7-2h3l1-2h2z" fill="#A98988"/>
<path transform="translate(307,301)" d="m0 0h5l-4 3h-2v2h-2l-3 9-1 8v3l3 3h4l-2 5-1 1v7h2l3 9 2 2v4h2v2l-5-1-6-7-4-10v-25l2-10 5-4z" fill="#947071"/>
<path transform="translate(490,409)" d="m0 0h2l-1 28h-1v-7l-5 2-4 4-8 1-10-1v-4l5-5 7-6v3l-3 1v3l-3 3-1 2 9-1 6-7 3-7z" fill="#7D6667"/>
<path transform="translate(383,341)" d="m0 0h5v2h15l-5 5-12 6-5 3h-5l-1-1 1-10 3-4z" fill="#B58D94"/>
<path transform="translate(528,292)" d="m0 0 5 1 4 5 4 10v14l-2 12-2 3-3-2-2 4-2 1 2-6 2-7v-6h2l-1-14-3-7-4-6z" fill="#60434B"/>
<path transform="translate(375,254)" d="m0 0 10 1 2 4 5 2v2h-17l-8 2h-15l5-5 5-2h6v-2z" fill="#695658"/>
<path transform="translate(510,319)" d="m0 0 5 1 5 5 2 3v3l5-3 1 5-3 7-5 4-8 2-6 2h-4l-1-3 9-1v-2h3v-2l5-1 2-5h-3l-2-5-4-4z" fill="#483A41"/>
<path transform="translate(471,322)" d="m0 0h9l3 10-1 9-1 5-3 12-2 1-5 23-5 11-1-3 3-9 4-15 1-15 3-3v-4l2-1 1-9-2-6-1-2-6-1h-8v-1z" fill="#8B6869"/>
<path transform="translate(427,472)" d="m0 0 3 1-1 2 1 7 4 3 5 5 2 5 5 2v8l-5 1v3h-2v3h-2l1-4 2-4v-7h-4l-5-5v-2l-5-1v-2l-3-1 1-10z" fill="#8A7071"/>
<path transform="translate(334,217)" d="m0 0 1 2-1 7 1 7-2 7-8 10-4 10-1 3-1 16h-2l-1-17 2-4h2l2-12 4-9 3-10z" fill="#644E53"/>
<path transform="translate(369,355)" d="m0 0 2 2-1 12 3 10 1 6h2l1 5h2l1 5-4 1-6-8v-2l-4-4-2-10v-9z" fill="#B58D94"/>
<path transform="translate(453,264)" d="m0 0h2v3l-10 3v2l1 2-8 4-5 6-2 5h-4l-1-2v-7l3-5 8-6h3v-2z" fill="#9A7778"/>
<path transform="translate(155,599)" d="m0 0h1l-1 8h2l1 6-4 16-4 18-2 10h-3l1-12h2v-10l1-10-2 6-1-4 8-24z" fill="#4C3C43"/>
<path transform="translate(525,295)" d="m0 0 6 2 4 6 1 4v12l-2 1v-2l-4-2-1-6-6-3-5-4 2-5z" fill="#735D5E"/>
<path transform="translate(432,210)" d="m0 0 6 1 2 2v4l4 1 6 10 2 5 1 4 4 2 4 9v4h-17l-10-1v-1h21l2-2-4-4v-3l-2-1-5-10-5-7-4-8-5-2z" fill="#7C6566"/>
<path transform="translate(335,244)" d="m0 0 1 2 4 1 1 4 4-1v-2l3 1-1 5-5 2v-2l-4 1-3-1v-2l-5 2-1-1-1 2h-2v2h-2l-3 12v19h-3l1-25 1-3h2l1-4 8-9z" fill="#8A7272"/>
<path transform="translate(465,568)" d="m0 0h4l-1 7-5 12-1 4-3 2h-4l-2 4-5 5-4 2 4-6 4-3v-4h2l3-12 6-10z" fill="#6C585A"/>
<path transform="translate(163,860)" d="m0 0 24 3 22 2 16 4v1l-9-1-4-1h-34l-12-2-3-3z" fill="#5E434B"/>
<path transform="translate(405,277)" d="m0 0 4 1 14 1 2 3h1v5h-2v5h2l1 8-3 1v2l-3-1-3-5v-13l1-2-4-1h-15l-1 2-1-3z" fill="#6F5A5C"/>
<path transform="translate(455,375)" d="m0 0 1 2-1 7h-2v3h-2l-2 7h-2v3l-14 5v-3l1-2h3l2-4 2-6v-11l4 1 1 9-1 5 2 1 2-7 5-9z" fill="#745D5E"/>
<path transform="translate(451,387)" d="m0 0h1v7l-4 7-6 3-8 2h-10l-11-1v-2l16-3 2-2 3 3 9-4h4v-3h2l1-5z" fill="#7D6667"/>
<path transform="translate(448,577)" d="m0 0 4 2-1 18-2 1 1-15-5 2-7 8-6 5-1 2h-2l1 5-3-1-1-8 9-6 2-3h2l2-4 2-3h2v-2z" fill="#B48D94"/>
<path transform="translate(405,461)" d="m0 0 4 1 4 2v2h6l4 4-2 5-4 2-6-2-8-7 1-5z" fill="#B58D94"/>
<path transform="translate(453,384)" d="m0 0 2 1v6l-4 10 1 4-1-2h-2l-2 4-2 2-11 1-1-3-16 2-3-1 2-1v-2h18l9-2 5-3 3-6z" fill="#8C696A"/>
<path transform="translate(375,440)" d="m0 0h39l2 2-27 3-2 5 5 1v2l-6-1-1-3-5-2-5-5z" fill="#816969"/>
<path transform="translate(434,364)" d="m0 0 7 2 8 6 1 6h3l-2 6-4 8-3-1 1-5-1-8-1-2h-2l-2-9-11 1-1-3z" fill="#5D424A"/>
<path transform="translate(530,725)" d="m0 0 4 1v2h3l-1-3 4 1 5 6h2l1 4-4-1-3-3-3 1 1 3 3 1 1 5 4 1v3h-6l-3 1v2h-2v2h-5l-1-1v-5l1 2h5l3-5-2-1-1-8h-3l-3-4z" fill="#C4B7B8"/>
<path transform="translate(127,772)" d="m0 0h3l2 1v32h-1l-1-22-2 8-1 13-3 4-2-1 1-13 2-14 1-5z" fill="#483A41"/>
<path transform="translate(423,373)" d="m0 0h1l1 7 4-4h3l1 5-1 4-6 3-3 2h-12l-7-3v-1l13-2 7 1-1-2z" fill="#BA969D"/>
<path transform="translate(373,281)" d="m0 0h12l6 3 1 2v8l-4 5-7 4h-5l-1-3 9-4 1-1 1-9h-2l-2 2v-5l-5 1-4-1z" fill="#61494F"/>
<path transform="translate(404,417)" d="m0 0h6l2 5 4 1v2l2 1-6 4-10-1-2-4v-6z" fill="#BF9BA3"/>
<path transform="translate(425,362)" d="m0 0h16l8 2 7 7-1 5-2 2h-3l-3-7-7-5-6-1h-11l-1-2z" fill="#272931"/>
<path transform="translate(452,261)" d="m0 0h22l10 7 4 2 2 4h8l1 1v7l-5 1-3-3v-2h-2l-6-7-7-5-7-2-14-1-4-1z" fill="#604E52"/>
<path transform="translate(366,545)" d="m0 0 3 3 5 9 2 1 4 8 7 10 6 10v2l3 1 4 7-1 2-8-8-8-12-4-7-5-9-8-15z" fill="#513F46"/>
<path transform="translate(451,277)" d="m0 0 10 2v1l-8 1-1 1h4v3h-6l-4-1h-9v6l-3 4v-2h-2v-8l7-6z" fill="#41373E"/>
<path transform="translate(499,482)" d="m0 0h1l1 10v21l-2 9h-2l-2 10-9 21-1-3 3-9 6-13 2-9h2v-12l-1-5 1-2h-2v-5l2-1z" fill="#5D494E"/>
<path transform="translate(306,308)" d="m0 0h2l1 5-2 7 3-1 1-6 4-1 3 3-1 4-6 4-3 1-1 5-4 1-1-5 2-12z" fill="#BE9AA2"/>
<path transform="translate(732,853)" d="m0 0 3 1-2 2-1 2-11 5-6 1-49 1-8 1v3h-7l-1-2h2l1-3 4-1 51-1 14-2z" fill="#483A41"/>
<path transform="translate(495,252)" d="m0 0h2l4 7 1 6-1 4h-4l-1 6h-4v-3l3-1-3-6v-11z" fill="#7D6667"/>
<path transform="translate(361,284)" d="m0 0 4 1-3 2 2 7h-6l-1 5-10 1-1-4-2-1 3-2h3l2-4 7-3z" fill="#725B5C"/>
<path transform="translate(394,363)" d="m0 0h10l-2 2-9 1-3 2-3 6-1 11-5-4-2-3 1-7 6-6z" fill="#332F37"/>
<path transform="translate(376,269)" d="m0 0h7l8 4 7 6 2 4v18l-3 5-1-3v-19l-5-7-7-4-8-3z" fill="#312E36"/>
<path transform="translate(491,397)" d="m0 0h1v12h-2l-1 6-7 10-3 3h-3l-1-3 8-11 7-14z" fill="#AB9291"/>
<path transform="translate(133,693)" d="m0 0h1v22h2l1-3h1v11l-3 12-1 8-2 9h-2l1-9 2-11v-9l-1-5v-11z" fill="#8A7173"/>
<path transform="translate(323,323)" d="m0 0 1 4-10 20 4 2v3h-5l-4-6-3-6 1-3 3 2 1 3 2 1 1-5 6-13z" fill="#866567"/>
<path transform="translate(403,602)" d="m0 0 5 2 2 4 8 4v2l7 1 3 4 2 8v3h-2l-6-8-6-5-4-5v-2l-4-2z" fill="#6C5759"/>
<path transform="translate(464,393)" d="m0 0 1 4-4 8-2 6h-2l-3 9-4 6-5 6-9 4-5 3-4-1 5-1v-2l11-5 3-1v-3l2-1 7-17h2l1-4z" fill="#7D6667"/>
<path transform="translate(442,264)" d="m0 0 4 1-3 2h-3v2l-7 4-5 4-3 9-2-4v-3h-17l3-2 2-1 16-2 5-5 5-1v-2z" fill="#6A5457"/>
<path transform="translate(522,341)" d="m0 0 1 2-5 6-8 6-7-3v-2h-2v9h-1v-10l2-3v2l10-3 9-3z" fill="#61424B"/>
<path transform="translate(393,190)" d="m0 0 17 3v3h3v2l-5-1-4-1-1 1h-14l-8-1 3-3h5v-2z" fill="#7D6667"/>
<path transform="translate(310,360)" d="m0 0 12 2 4 1h10l-1 4h-2v3h-8l-12-6z" fill="#BD99A0"/>
<path transform="translate(432,251)" d="m0 0h2v3h-2v3l10 1 9 1-5 5-9 2v2l-5 1v-2l3-3 4-1-10-2v-6z" fill="#7B6465"/>
<path transform="translate(501,350)" d="m0 0h2l3 3 4 2-4 8 4 1v3h-9l-2-1 1-7z" fill="#584249"/>
<path transform="translate(406,328)" d="m0 0 7 1-3 6-6 1-6-1v2l-3 2h-4v-4h2l1-3 3-1 2 1v-2z" fill="#B38C92"/>
<path transform="translate(347,364)" d="m0 0h3l2 4 2 1v4h-2l1 4h5l3 12 3 3-2 7h-2l-2-10-10-19z" fill="#B68E95"/>
<path transform="translate(461,280)" d="m0 0 9 1 4 4 2 4v4l-4 2h-4l-2-4h-4v-3l5 2v-6l-5-2z" fill="#5A4149"/>
<path transform="translate(525,313)" d="m0 0 1 2h2l2 5-1 2h2l3 7-1 5-4 8h-2l1-15v-4l-5-1 2-1-2-7z" fill="#735D5E"/>
<path transform="translate(392,289)" d="m0 0h1v10l-3 6-7 1-1-1-8 1-3-4-3-1 9-2-1 4 9-3 5-5z" fill="#7D6263"/>
<path transform="translate(387,254)" d="m0 0 10 2 4 3 6 1v-2l5-1h3l-2 4-5 2-1 3-4 1-7-5v-2h-2v-3l-5-1z" fill="#AB8C8A"/>
<path transform="translate(310,348)" d="m0 0 3 2v2l12 2 7 1 3 2v2h-2v2l-7-1-13-4-5-6h2z" fill="#BC989F"/>
<path transform="translate(476,297)" d="m0 0 6 2h2l2 6-3 7h-3l1-2-3-2-3-5-8-4v-1z" fill="#7D6667"/>
<path transform="translate(149,856)" d="m0 0 5 1 2 1 1 6-2 5 6-1 8 1h39l3 2-37 1-18-1-4-4v-9z" fill="#A88486"/>
<path transform="translate(398,336)" d="m0 0 5 1v2h16l-1 2-6 1v2l2 1-7-1-3-2-5-1v2h-8v-3z" fill="#7D6364"/>
<path transform="translate(307,301)" d="m0 0h5l-4 3h-2v2h-2l-3 9-1 8v3l3 3h4l-1 3h-3l-1 7h-2v-5h-2v-18l2-10 5-4z" fill="#9C7879"/>
<path transform="translate(379,185)" d="m0 0h2v3l-7 3-2 4h-3l-2 1v2l-9 1-7 2 5-5 14-7z" fill="#5C484D"/>
<path transform="translate(422,336)" d="m0 0h8l7 3-1 2-11 1-4 1v2h-7l-2-1v-2l9-3z" fill="#553F46"/>
<path transform="translate(351,267)" d="m0 0h28l8 2 1 2-11-1-2 1h-26l-6 2 4-4z" fill="#745D5F"/>
<path transform="translate(739,850)" d="m0 0h1v7l-2 10-4 1h-10v-1l6-1-2-1 1-5 7-3z" fill="#645255"/>
<path transform="translate(486,405)" d="m0 0 1 4-7 11-4 6v2l5-3 3-2-2 5-5 5h-9l2-5h2v-3l5-5 8-12z" fill="#8D7373"/>
<path transform="translate(452,357)" d="m0 0h2l3 4v4l1-2h2l-1 7-2 5-2-4-9-8 2-2z" fill="#786062"/>
<path transform="translate(333,509)" d="m0 0 1 4v5l-4 7-5 2-1-7-4-2 6-3z" fill="#4B3B42"/>
<path transform="translate(449,324)" d="m0 0 8 1 3 2 2 6-3 3v2l-5-2-5-7z" fill="#AB8C8A"/>
<path transform="translate(478,562)" d="m0 0 1 2-3 7-5 10h-2l-2 4-3 4-3-1 4-8h2l2-6 6-9z" fill="#98797A"/>
<path transform="translate(126,767)" d="m0 0h1v12l-1 1-4 27 3 1v12l-4-1v-20z" fill="#4C4045"/>
<path transform="translate(417,368)" d="m0 0 6 1h3l3-1 3 1v7l-5 1-2 4h-1v-8l-4-1-5 1-2-1 1-2z" fill="#946F70"/>
<path transform="translate(669,866)" d="m0 0h22l4 3-35 1v-2z" fill="#8D6869"/>
<path transform="translate(376,558)" d="m0 0 4 4 1 3 4 4 14 22 4 8-1 2-5-8-2-4-3-3-11-18-5-7z" fill="#7C6263"/>
<path transform="translate(472,550)" d="m0 0h2l-1 5-8 6-4 11-2 2-3 13-3 4 2-13 4-10 5-10h2l2-4 4-2z" fill="#8C696A"/>
<path transform="translate(398,443)" d="m0 0h8l-1 3-11 1-1 5 5 1 3 3h-4v-2l-5-1v-2l-5-1-1-3h2l1-3z" fill="#745E5F"/>
<path transform="translate(392,362)" d="m0 0h17v5l-7 1-5 1h-8l4-4 9-1h-8l-7 1 1-2z" fill="#5D4149"/>
<path transform="translate(715,621)" d="m0 0 2 3 10 29-1 2h-2l-1-6-2-3-6-15z" fill="#5E4E53"/>
<path transform="translate(471,322)" d="m0 0h9l3 10-1 8-4 1 1-7-2-6-1-2-6-1h-8v-1z" fill="#8C696A"/>
<path transform="translate(438,286)" d="m0 0h4l1 4h2v2h14l5 1v2h-17l-8-2z" fill="#927474"/>
<path transform="translate(465,263)" d="m0 0 8 1 3 3 1 3-5-1-6 1-3 3-3 1-1 1h-9v-1l5-1 3-4 7-2 3 1v-4z" fill="#7D6667"/>
<path transform="translate(156,859)" d="m0 0 4 1-2 5 12 3 36 1v1h-37l-14-1z" fill="#8F6B6C"/>
<path transform="translate(127,817)" d="m0 0h2v7l1 7 2 1-4 7-1 7h-1l-2-16v-5l1 2h2l-1-5z" fill="#735D5E"/>
<path transform="translate(320,338)" d="m0 0 2 4v3l3 2v2l3 1-1 1h-9l-4-4 1-5 2-3z" fill="#BD99A1"/>
<path transform="translate(538,731)" d="m0 0 4 1 3 3 3 1 1-4h3l-1 5-3 1v6l-6-2v-5l-4-1-1-4z" fill="#2E2E36"/>
<path transform="translate(341,318)" d="m0 0 8 6 7 3h13l8-2v2l-4 1v2l-12 1-11-3-9-8z" fill="#654E53"/>
<path transform="translate(528,292)" d="m0 0 5 1 4 5 3 6v9l-3-2-1-8h-2l-6-9z" fill="#4D3B43"/>
<path transform="translate(438,252)" d="m0 0h15l11 3v1h-26l-2-2z" fill="#2A2B33"/>
<path transform="translate(502,308)" d="m0 0h1v5h2v9l3-1 4 7-6 5-3-9-1-1z" fill="#615053"/>
<path transform="translate(529,299)" d="m0 0 5 2 2 6v10l-3-1-2-4v-4h-2l-1-8z" fill="#7D6667"/>
<path transform="translate(158,859)" d="m0 0 5 1 3 5 12 2h11l1 2h-20l-12-4 2-5z" fill="#725C5D"/>
<path transform="translate(488,539)" d="m0 0v3l-4 14-2-1-4 1v-7h3l2-5 1-2h2v-2z" fill="#725C5D"/>
<path transform="translate(375,322)" d="m0 0m-20 1 8 1 12-1v3l-6 2h-13l-2-4z" fill="#B48E94"/>
<path transform="translate(383,341)" d="m0 0h5v2h15l-5 5-8 4h-2v-2l4-3-1-2-8-1-5 1 1-3z" fill="#AA8B89"/>
<path transform="translate(465,568)" d="m0 0h4l-1 7-4 9-1-2h-2l2-5-4 1 1-4 4-5z" fill="#735D5E"/>
<path transform="translate(445,318)" d="m0 0 10 2h20l-1 2-7 2h-10l-11-2z" fill="#634D52"/>
<path transform="translate(668,865)" d="m0 0h24l14 3v1h-11l-4-2h-22l-9 1v2h-9v-1h7v-2z" fill="#775E5F"/>
<path transform="translate(425,357)" d="m0 0h6l1 3h8v1l-22 1h-20v-1l18-1z" fill="#7C6162"/>
<path transform="translate(429,275)" d="m0 0h3v13l-5 1-1-2v-7z" fill="#B49598"/>
<path transform="translate(434,251)" d="m0 0h10v1l-7 2 1 1h20l-3 2-9 1-10 1-5-1 1-4h2z" fill="#5C494E"/>
<path transform="translate(404,374)" d="m0 0h2l-1 4-11 1-1 3h-2l1 3h12v2h-13l-4-3v-3l8-5z" fill="#BD98A0"/>
<path transform="translate(331,223)" d="m0 0 1 4-1 3 1 3-3 7-2 4h-2l-3 9-1-4 5-12 3-10z" fill="#483A41"/>
<path transform="translate(353,200)" d="m0 0 2 1-4 4-1 3-11 7-4 2 1-3 5-5h2l2-4 4-4z" fill="#675255"/>
<path transform="translate(375,262)" d="m0 0m-4 1h4v2h5l-1 2h-25l1-2 3-1h10z" fill="#A07C7D"/>
<path transform="translate(362,258)" d="m0 0h5l-3 1v2l-2 1 10-1h10v1l-15 3h-15l5-5z" fill="#745F60"/>
<path transform="translate(391,370)" d="m0 0h5l1 2-4 4 1 2-5 3h-3v-7z" fill="#B28B91"/>
<path transform="translate(523,291)" d="m0 0h7l-2 1 3 5-6-2-1 2-4 1-2 4-2-2 2-7z" fill="#615053"/>
<path transform="translate(373,281)" d="m0 0h12l3 1 3 7-1 3-4-4v-2h-2l-2 2v-5l-5 1-4-1z" fill="#574249"/>
<path transform="translate(422,676)" d="m0 0 4 1 3 5-1 4-2 2h-7l-2-7 2-1 1 4 4 1v-5l-3-1z" fill="#FBFCFB"/>
<path transform="translate(432,450)" d="m0 0h6l2 4-6 2h-9v-3z" fill="#262931"/>
<path transform="translate(534,335)" d="m0 0 3 1-1 5-6 9-4 4h-2l2-6 6-8z" fill="#4D3C43"/>
<path transform="translate(452,261)" d="m0 0h22l8 6 1 2-4-1-6-3-12-2h-10z" fill="#61464D"/>
<path transform="translate(335,236)" d="m0 0 1 3-4 8-5 5-4 5-2 3 1-6 5-8 6-8h2z" fill="#7D6566"/>
<path transform="translate(334,217)" d="m0 0 1 2-1 7 1 7-2 7-5 4-1-2 3-5 1-5-1-4 2-7z" fill="#5E4D51"/>
<path transform="translate(366,545)" d="m0 0 3 3 5 9 2 1 4 8 7 10 3 6-3-1-10-16-1-3h-2l-8-15z" fill="#5D434B"/>
<path transform="translate(528,327)" d="m0 0h1v7l-2 9-4 5-5 3h-2v2l-3-1 5-4 2-3h2l2-5 3-7zm-16 26 1 2-2-1z" fill="#635154"/>
<path transform="translate(488,290)" d="m0 0 2 1 2 9v9l-2 1-3-1z" fill="#625154"/>
<path transform="translate(134,704)" d="m0 0 2 3 2-1 1 2v16l-3 14h-2l2-13 1-2v-10l-1 2h-2z" fill="#6C585A"/>
<path transform="translate(524,338)" d="m0 0 2 1-6 5-8 2-6 2h-4l-1-3 9-1v-2h3v-2l7 1z" fill="#4A3A42"/>
<path transform="translate(439,293)" d="m0 0 22 2v1l-7 1 2 1v2l-16-1v-3z" fill="#765F60"/>
<path transform="translate(375,440)" d="m0 0h23l1 2h-10l-7 1 3 6-5-2-5-5z" fill="#8A7272"/>
<path transform="translate(385,343)" d="m0 0 6 2 3 2-4 3h-2v3l-7 4-2-1 3-1 1-5 3-5z" fill="#B38D92"/>
<path transform="translate(510,289)" d="m0 0h2l2 7 2 2-5 3h-3v-4l-3-1 2-5z" fill="#493A41"/>
<path transform="translate(372,257)" d="m0 0h7l2 2-9 3-5 1h-8l3-2h2v-2z" fill="#2E2D34"/>
<path transform="translate(416,405)" d="m0 0h20l4 5h-6l-1-3-16 2-3-1 2-1z" fill="#8B6C6C"/>
<path transform="translate(361,284)" d="m0 0 4 1-3 2 2 7-13 1 2-5h6l1-5z" fill="#59434A"/>
<path transform="translate(460,284)" d="m0 0 4 1v3h-2v3l6 1v2l-4 1v-2l-19-1v-2h-2l1-2 3 2 12 1z" fill="#715A5C"/>
<path transform="translate(732,853)" d="m0 0 3 1-2 2-1 2-11 5-6 1h-9l2-2 14-2z" fill="#483A41"/>
<path transform="translate(396,570)" d="m0 0 5 2 1 1-1 7-1 2h-3l-2-4v-6z" fill="#AD9696"/>
<path transform="translate(397,368)" d="m0 0h5v6l-5 3-5-1 4-4v-1h-5l-4 3 2-5z" fill="#9E797B"/>
<path transform="translate(323,323)" d="m0 0 1 4-7 14-1-2-2-1 6-13z" fill="#816164"/>
<path transform="translate(138,724)" d="m0 0h1v11l-1 7-3 5-3 1 1-5 2-5z" fill="#483A41"/>
<path transform="translate(381,278)" d="m0 0 7 2 2 3-17-2 2 4-1 3-2-2v-3l-5 1-4-1 9-3z" fill="#826769"/>
<path transform="translate(132,832)" d="m0 0 2 4-2 8-3 1-1 4-1-1v-9l4-6z" fill="#685558"/>
<path transform="translate(548,737)" d="m0 0 2 1-1 3 2 1v2h3v2h2v5l-5 1-1-3 1-4h-3l-1 3h-2v-2h2v-8z" fill="#866E70"/>
<path transform="translate(461,586)" d="m0 0 2 1-1 4-3 2h-4l-2 4-5 5-4 2 4-6 4-3v-4h2v-2l6-2z" fill="#785E60"/>
<path transform="translate(493,453)" d="m0 0 2 2 2 11 1 18-2-4-2-8z" fill="#917676"/>
<path transform="translate(464,390)" d="m0 0 2 1-8 14-9 9 2-5 3-5 4-6 2-1z" fill="#8B6D6D"/>
<path transform="translate(435,368)" d="m0 0h4l1 3-1 11h-4l-1-13z" fill="#C8B2B3"/>
<path transform="translate(501,350)" d="m0 0h2l3 3 4 2-5 5-4 1z" fill="#3D343C"/>
<path transform="translate(505,280)" d="m0 0 1 3h2v3h-2v2l-3 1-1 12h-1l-1-20z" fill="#614F53"/>
<path transform="translate(451,277)" d="m0 0 10 2v1l-8 1-1 1h4v3h-6l-4-1h-3v-2l3-2h3v-2z" fill="#4C3E44"/>
<path transform="translate(376,269)" d="m0 0h7l8 4 7 6-4 1-7-6-10-3z" fill="#554148"/>
<path transform="translate(312,331)" d="m0 0h2v3l2 1-3 8-3-1v-3l-4-2 1-2 4-2z" fill="#B48E93"/>
<path transform="translate(303,311)" d="m0 0 2 4-3 12-3-1v-8l3-6z" fill="#AB8C8B"/>
<path transform="translate(332,298)" d="m0 0 1 2h2l4 13 3 5h-3l-5-9-3-10z" fill="#806667"/>
<path transform="translate(320,264)" d="m0 0 1 4v20h-3l1-23z" fill="#8A7272"/>
<path transform="translate(414,613)" d="m0 0 4 2 4 4 4 1 4 7v3h-2l-6-8-6-5z" fill="#59444A"/>
<path transform="translate(439,341)" d="m0 0 4 1h-3v2l-4 1h-8v2l-12-1v-1l8-1 4-2 6 1z" fill="#745E5F"/>
<path transform="translate(430,304)" d="m0 0 5 5 8 7 2 1v2l2 1-5-1-9-7-2-2z" fill="#564248"/>
<path transform="translate(514,318)" d="m0 0 3 1v2l4-1 3 5v2l4-2v5h-3l-3 1-4-8-4-3z" fill="#5F414A"/>
<path transform="translate(494,528)" d="m0 0h2l-3 9-7 16-1-3 3-9z" fill="#58444A"/>
<path transform="translate(437,366)" d="m0 0 3 1 1 3h-2v-2l-4 2v10h-2l-2-5 1-6-3-1z" fill="#876668"/>
<path transform="translate(466,294)" d="m0 0 6 1-1 2-17 2-1-1h-7v-1z" fill="#614A50"/>
<path transform="translate(515,335)" d="m0 0 2 1-1 4h-3v2l-9 1v-3l3-1 2-2h6z" fill="#745D5E"/>
<path transform="translate(400,281)" d="m0 0h6v2h-2l-1 8-1 4 1 2-3 4z" fill="#826465"/>
<path transform="translate(409,277)" d="m0 0h17l-1 9-2-4v-3h-17z" fill="#302E36"/>
<path transform="translate(433,604)" d="m0 0 6 1v3l2 1-3 4h-2l-2-4-2-1v-2l-2-1z" fill="#B18B91"/>
<path transform="translate(511,275)" d="m0 0 3 1v9l-8-3 1-4 4-1z" fill="#322F37"/>
<path transform="translate(376,558)" d="m0 0 4 4 1 3 4 4 6 9-1 2-4-4-10-15z" fill="#7E6364"/>
<path transform="translate(408,440)" d="m0 0h6l2 2-18 2h-7l1-3z" fill="#7E6667"/>
<path transform="translate(429,376)" d="m0 0h3l1 5-2 3-5 1v-6z" fill="#FDFEFD"/>
<path transform="translate(375,254)" d="m0 0 10 1 2 4-5-1h-14v-2z" fill="#7C6667"/>
<path transform="translate(126,767)" d="m0 0h1v12l-1 1-3 20-2 3 2-18z" fill="#8D7476"/>
<path transform="translate(480,318)" d="m0 0 3 1 1 7v6l-3-3-1-7h-4v-2z" fill="#7D6667"/>
<path transform="translate(406,328)" d="m0 0 7 1-2 4-3 1-6-1 2-4z" fill="#BF9BA3"/>
<path transform="translate(424,287)" d="m0 0h3v2h2v7h3l-2 6-2-2-2-5v-3h-2z" fill="#43383F"/>
<path transform="translate(461,280)" d="m0 0h6l5 4 1 3h-2v3l-4-1v-5l-5-2z" fill="#483A41"/>
<path transform="translate(432,251)" d="m0 0h2v3h-2v3l8 2-4 2-5 1-2-1v-6z" fill="#745E5F"/>
<path transform="translate(434,512)" d="m0 0 3 1h-2l-2 5-1 5-3 1-3-3h2v-4l3-1z" fill="#8C6B6B"/>
<path transform="translate(445,377)" d="m0 0 3 4 4 1-5 10-3-1 1-5z" fill="#615053"/>
<path transform="translate(436,299)" d="m0 0 4 1h-3l-1 6 2 3-1 3-5-5-1-6h4z" fill="#776162"/>
<path transform="translate(413,198)" d="m0 0h2v2l5 2 11 6 1 2-7-2-8-3-1-3-3-2z" fill="#7D6667"/>
<path transform="translate(535,740)" d="m0 0 5 1-3 6-4 1-3-3z" fill="#5E5054"/>
<path transform="translate(530,725)" d="m0 0 4 1v2h3l-1-3 4 1-2 4-2 2-4-1-2-2z" fill="#E2DADA"/>
<path transform="translate(535,303)" d="m0 0 3 4 1 5 2-4v9l-5 2z" fill="#674E53"/>
<path transform="translate(491,276)" d="m0 0h7v6l-4 1-4-5z" fill="#272931"/>
<path transform="translate(167,861)" d="m0 0 13 1 15 2v1h-17l-11-3z" fill="#483A41"/>
<path transform="translate(715,621)" d="m0 0 2 3 4 11v2l-4-1-2-5z" fill="#635156"/>
<path transform="translate(420,361)" d="m0 0h22l4 2h-21l-3 1h-8v-1z" fill="#563E46"/>
<path transform="translate(440,323)" d="m0 0 8 6 3 4v6l-2 2-3-1 3-3-1-6-4-2-4-4z" fill="#7F6364"/>
<path transform="translate(471,322)" d="m0 0h7l2 5-3 1-1-2-6-1h-8v-1z" fill="#876F6F"/>
<path transform="translate(465,263)" d="m0 0 8 1 3 3 1 3-5-1-4 1-1-2 1-4z" fill="#7C6566"/>
<path transform="translate(396,337)" d="m0 0h5l-2 6h-8v-3z" fill="#3F383F"/>
<path transform="translate(309,307)" d="m0 0h2v2l2 1 1 2-3 3-1 5h-3z" fill="#B08C90"/>
<path transform="translate(307,301)" d="m0 0h5l-4 3h-2v2h-2l-2 5-2 2v-7l5-4z" fill="#7A5F61"/>
<path transform="translate(392,289)" d="m0 0h1v10l-1 2-11 2 1-2 7-4 2-3z" fill="#7A6364"/>
<path transform="translate(148,642)" d="m0 0h2l-1 10-1 5h-3l1-12h2z" fill="#483A41"/>
<path transform="translate(453,384)" d="m0 0 2 1v6l-4 10 1 4-1-2h-2v-6l2-3z" fill="#8B6C6D"/>
<path transform="translate(425,362)" d="m0 0h11l3 3h-16l-1-2z" fill="#373139"/>
<path transform="translate(303,331)" d="m0 0h2l-2 11-3-1-1 3-1-3v-7h2v5h2l-1-4z" fill="#8C6A6B"/>
<path transform="translate(420,676)" d="m0 0 2 1-1 2 4 1-1 5-5-1-1-5z" fill="#6A595D"/>
<path transform="translate(410,368)" d="m0 0h2l1 4h4v7l-4-2-1-5-4-1z" fill="#BC979E"/>
<path transform="translate(341,318)" d="m0 0 8 6 11 4v2l-7-1-7-4-5-5z" fill="#60484E"/>
<path transform="translate(315,320)" d="m0 0h2l-1 3h-2v2l-7 5v-6z" fill="#A88687"/>
<path transform="translate(428,309)" d="m0 0 5 2 3 4v3l2 4-6-4-4-7z" fill="#866768"/>
<path transform="translate(405,277)" d="m0 0 4 1 13 1v1l-22 1-1 2-1-3z" fill="#634E52"/>
<path transform="translate(455,256)" d="m0 0 9 1 4 2v1h-12l-2-2z" fill="#7A6364"/>
<path transform="translate(655,863)" d="m0 0 6 1v2h-3v3h-7l-1-2h2l1-3z" fill="#4C3C43"/>
<path transform="translate(331,287)" d="m0 0 1 4-2 2h-6v-5z" fill="#39353C"/>
<path transform="translate(478,562)" d="m0 0 1 2-3 7-2 2h-3l2-6z" fill="#9E7C7D"/>
<path transform="translate(423,373)" d="m0 0h1l1 7h1v5l6-2v2l-6 3h-3z" fill="#B8969B"/>
<path transform="translate(383,285)" d="m0 0 3 1v9l-3 2-5-1 4-2z" fill="#7C6566"/>
<path transform="translate(395,181)" d="m0 0 4 1-1 2-17 3v-2z" fill="#61474E"/>
<path transform="translate(738,849)" d="m0 0 2 1-3 7-5 3-2-1 3-1-1-3 3-1 2-4z" fill="#5E434B"/>
<path transform="translate(124,825)" d="m0 0 2 4 3 9-1 1-1 7h-1l-2-16z" fill="#92787A"/>
<path transform="translate(135,683)" d="m0 0h1l1 6 2 1-1 7-2 3-1-3z" fill="#483A41"/>
<path transform="translate(427,368)" d="m0 0 5 1v7l-5 1z" fill="#A68285"/>
<path transform="translate(338,302)" d="m0 0 2 4 2 5 1 5h-3l-3-7z" fill="#A88887"/>
<path transform="translate(535,299)" d="m0 0 5 5v9l-3-2-1-5z" fill="#4A3A42"/>
<path transform="translate(445,276)" d="m0 0h13l3 3-10-1h-9z" fill="#61494F"/>
<path transform="translate(324,354)" d="m0 0 8 1 3 2v2h-2v2l-7-1 3-3-5-1z" fill="#B08D8F"/>
<path transform="translate(304,336)" d="m0 0 4 5 2 5v4l-3-1-1-7h-2z" fill="#CBB0B5"/>
<path transform="translate(521,333)" d="m0 0 4 2-1 4-4 3h-5l4-4 2-1z" fill="#262931"/>
<path transform="translate(377,326)" d="m0 0h3l-2 6-3 1-2 5-2 1 2-5 3-5-3-1z" fill="#A68786"/>
<path transform="translate(389,314)" d="m0 0 1 3-9 8-4 1v-2l9-7z" fill="#5A464C"/>
<path transform="translate(663,867)" d="m0 0h11l2 2-6 1h-10v-2z" fill="#9F7B7C"/>
<path transform="translate(407,438)" d="m0 0 14 1 1 2h-23v-1z" fill="#89696A"/>
<path transform="translate(392,362)" d="m0 0h17v2l-7 1v-1h-8l-7 1 1-2z" fill="#534047"/>
<path transform="translate(404,344)" d="m0 0 7 2-1 4-8-2z" fill="#AB8C8A"/>
<path transform="translate(328,330)" d="m0 0 2 2 4 14v3h-2l-4-14z" fill="#9F7C7C"/>
<path transform="translate(377,295)" d="m0 0 6 1v2l-3 1h-10l2-3z" fill="#896F70"/>
<path transform="translate(331,227)" d="m0 0 2 2v8l-3 6-3 1 2-5 2-7-1-4z" fill="#61434B"/>
<path transform="translate(149,856)" d="m0 0 5 1 2 1 1 6-4 3-1-9z" fill="#9F7E80"/>
<path transform="translate(318,292)" d="m0 0h5l1 10-4-5-2-1z" fill="#594A4F"/>
<path transform="translate(349,288)" d="m0 0 2 1-1 4-13 4-4-1 13-4h2z" fill="#C561F9"/>
<path transform="translate(472,261)" d="m0 0 5 2 6 5-3 1-10-6z" fill="#493A41"/>
<path transform="translate(331,241)" d="m0 0v3l-4 5-3 7-3 4 1-6 5-8z" fill="#755E5F"/>
<path transform="translate(334,219)" d="m0 0 2 4v13l-2 2v-8l-1-8z" fill="#735D5E"/>
<path transform="translate(553,725)" d="m0 0h4v8l-3-3-5 1z" fill="#F2EFEE"/>
<path transform="translate(167,582)" d="m0 0 2 1-10 10-2 6-1-4 4-7z" fill="#4C3A42"/>
<path transform="translate(463,369)" d="m0 0 2 2v3h2l1 3-1 2-5-2-1-5z" fill="#AB8C8A"/>
<path transform="translate(386,301)" d="m0 0h6l-2 4-7 1-1-3z" fill="#8C6B6B"/>
<path transform="translate(358,294)" d="m0 0h6v1h-5l-1 5-4 2-4-1v-2l6-1z" fill="#7C6465"/>
<path transform="translate(523,291)" d="m0 0h7l-2 1 3 5-4-1v-2h-9l2-2z" fill="#60434B"/>
<path transform="translate(384,283)" d="m0 0 5 1 2 7h-3z" fill="#44383F"/>
<path transform="translate(428,276)" d="m0 0 3 3-1 2v3h-2l1 5h-2l-1-2v-7z" fill="#CA6FF9"/>
<path transform="translate(417,368)" d="m0 0 6 1-1 4-2-1-5 1-2-1 1-2z" fill="#A47F82"/>
<path transform="translate(434,364)" d="m0 0 7 2-4 1-9 1-1-3z" fill="#5F414A"/>
<path transform="translate(510,319)" d="m0 0 5 1 2 2-1 4-5-3z" fill="#262931"/>
<path transform="translate(318,315)" d="m0 0 2 1 1 1 2-1v6l-2-2-4 4-3-1 2-1 1-4z" fill="#B38D92"/>
<path transform="translate(358,287)" d="m0 0 1 3h-6l-1 7-4-2-1-2h3l2-4z" fill="#695457"/>
<path transform="translate(440,283)" d="m0 0h10v2l-6 1-2 2v-2h-4l-1 4v-6z" fill="#6C585B"/>
<path transform="translate(557,726)" d="m0 0h1v8l-2 2h-3l-1-6 3-1 1 1z" fill="#BCA7A9"/>
<path transform="translate(139,698)" d="m0 0h1v17h-1l-2-9v-5z" fill="#6D595B"/>
<path transform="translate(390,330)" d="m0 0 4 1-1 4h-2v3l-4-2 2-1z" fill="#AA8B89"/>
<path transform="translate(460,283)" d="m0 0h7l1 4-1 3-4-1v-4z" fill="#2D2C34"/>
<path transform="translate(427,256)" d="m0 0h2v5l3 1-4 3h-2l-1-6z" fill="#7D6667"/>
<path transform="translate(425,337)" d="m0 0 12 2-1 2-12-1z" fill="#262931"/>
<path transform="translate(442,257)" d="m0 0h13l1 3-1 1h-5v-1l-8-1z" fill="#735D5E"/>
<path transform="translate(457,575)" d="m0 0 1 4-2 8-3 4 2-13z" fill="#886768"/>
<path transform="translate(310,360)" d="m0 0 12 2-1 2h-8z" fill="#B09192"/>
<path transform="translate(385,344)" d="m0 0 2 2-4 5-2 3-1-7z" fill="#BF9BA3"/>
<path transform="translate(327,252)" d="m0 0 1 3h-2v2h-2l-2 7-3 1 1-5h2l1-4z" fill="#866E6F"/>
<path transform="translate(379,185)" d="m0 0h2v3l-9 3-4-1z" fill="#554047"/>
<path transform="translate(410,365)" d="m0 0 3 2-1 3v-2l-5 2-2 3-3-6 7-1z" fill="#9B7778"/>
<path transform="translate(321,298)" d="m0 0 2 2 2-1 1 5-2 5-2-2z" fill="#886C6D"/>
<path transform="translate(431,288)" d="m0 0 1 4h2l-1 3-5-1 1-5z" fill="#6E595B"/>
<path transform="translate(552,746)" d="m0 0h4v5l-5 1-1-3z" fill="#E9E3E3"/>
<path transform="translate(434,405)" d="m0 0 4 2 2 3h-6l-1-3h-5v-1z" fill="#8A7272"/>
<path transform="translate(334,363)" d="m0 0h2l-1 4h-2v3h-8v-1h7v-4l-3-1z" fill="#AD8C8C"/>
<path transform="translate(421,337)" d="m0 0 1 3-4 4-4 1-2-1v-2l9-3z" fill="#61474E"/>
<path transform="translate(383,341)" d="m0 0h5v2l3 1-2 1-6-1-5 1 1-3z" fill="#AB8C8A"/>
<path transform="translate(312,334)" d="m0 0 1 3v6l-3-1v-3l-4-2 4-1z" fill="#A58383"/>
<path transform="translate(422,294)" d="m0 0 2 4v5l-3-1-2-5z" fill="#615053"/>
<path transform="translate(456,292)" d="m0 0 8 1v2h-13l3-2z" fill="#9C7879"/>
<path transform="translate(488,278)" d="m0 0h3l3 4h4v2h-8v-2h-2z" fill="#735E5F"/>
</svg>
